%TF.GenerationSoftware,KiCad,Pcbnew,9.0.1*%
%TF.CreationDate,2025-06-16T09:39:09+05:30*%
%TF.ProjectId,project1,70726f6a-6563-4743-912e-6b696361645f,rev?*%
%TF.SameCoordinates,Original*%
%TF.FileFunction,Legend,Top*%
%TF.FilePolarity,Positive*%
%FSLAX46Y46*%
G04 Gerber Fmt 4.6, Leading zero omitted, Abs format (unit mm)*
G04 Created by KiCad (PCBNEW 9.0.1) date 2025-06-16 09:39:09*
%MOMM*%
%LPD*%
G01*
G04 APERTURE LIST*
%ADD10C,0.100000*%
%ADD11C,0.150000*%
%ADD12C,0.120000*%
G04 APERTURE END LIST*
D10*
X90750000Y-48250000D02*
X101000000Y-48250000D01*
X101000000Y-51500000D01*
X90750000Y-51500000D01*
X90750000Y-48250000D01*
X91803884Y-50372419D02*
X91803884Y-49372419D01*
X91803884Y-49372419D02*
X92184836Y-49372419D01*
X92184836Y-49372419D02*
X92280074Y-49420038D01*
X92280074Y-49420038D02*
X92327693Y-49467657D01*
X92327693Y-49467657D02*
X92375312Y-49562895D01*
X92375312Y-49562895D02*
X92375312Y-49705752D01*
X92375312Y-49705752D02*
X92327693Y-49800990D01*
X92327693Y-49800990D02*
X92280074Y-49848609D01*
X92280074Y-49848609D02*
X92184836Y-49896228D01*
X92184836Y-49896228D02*
X91803884Y-49896228D01*
X93375312Y-50277180D02*
X93327693Y-50324800D01*
X93327693Y-50324800D02*
X93184836Y-50372419D01*
X93184836Y-50372419D02*
X93089598Y-50372419D01*
X93089598Y-50372419D02*
X92946741Y-50324800D01*
X92946741Y-50324800D02*
X92851503Y-50229561D01*
X92851503Y-50229561D02*
X92803884Y-50134323D01*
X92803884Y-50134323D02*
X92756265Y-49943847D01*
X92756265Y-49943847D02*
X92756265Y-49800990D01*
X92756265Y-49800990D02*
X92803884Y-49610514D01*
X92803884Y-49610514D02*
X92851503Y-49515276D01*
X92851503Y-49515276D02*
X92946741Y-49420038D01*
X92946741Y-49420038D02*
X93089598Y-49372419D01*
X93089598Y-49372419D02*
X93184836Y-49372419D01*
X93184836Y-49372419D02*
X93327693Y-49420038D01*
X93327693Y-49420038D02*
X93375312Y-49467657D01*
X94137217Y-49848609D02*
X94280074Y-49896228D01*
X94280074Y-49896228D02*
X94327693Y-49943847D01*
X94327693Y-49943847D02*
X94375312Y-50039085D01*
X94375312Y-50039085D02*
X94375312Y-50181942D01*
X94375312Y-50181942D02*
X94327693Y-50277180D01*
X94327693Y-50277180D02*
X94280074Y-50324800D01*
X94280074Y-50324800D02*
X94184836Y-50372419D01*
X94184836Y-50372419D02*
X93803884Y-50372419D01*
X93803884Y-50372419D02*
X93803884Y-49372419D01*
X93803884Y-49372419D02*
X94137217Y-49372419D01*
X94137217Y-49372419D02*
X94232455Y-49420038D01*
X94232455Y-49420038D02*
X94280074Y-49467657D01*
X94280074Y-49467657D02*
X94327693Y-49562895D01*
X94327693Y-49562895D02*
X94327693Y-49658133D01*
X94327693Y-49658133D02*
X94280074Y-49753371D01*
X94280074Y-49753371D02*
X94232455Y-49800990D01*
X94232455Y-49800990D02*
X94137217Y-49848609D01*
X94137217Y-49848609D02*
X93803884Y-49848609D01*
X95565789Y-50372419D02*
X95565789Y-49372419D01*
X95565789Y-49372419D02*
X95803884Y-49372419D01*
X95803884Y-49372419D02*
X95946741Y-49420038D01*
X95946741Y-49420038D02*
X96041979Y-49515276D01*
X96041979Y-49515276D02*
X96089598Y-49610514D01*
X96089598Y-49610514D02*
X96137217Y-49800990D01*
X96137217Y-49800990D02*
X96137217Y-49943847D01*
X96137217Y-49943847D02*
X96089598Y-50134323D01*
X96089598Y-50134323D02*
X96041979Y-50229561D01*
X96041979Y-50229561D02*
X95946741Y-50324800D01*
X95946741Y-50324800D02*
X95803884Y-50372419D01*
X95803884Y-50372419D02*
X95565789Y-50372419D01*
X96946741Y-50324800D02*
X96851503Y-50372419D01*
X96851503Y-50372419D02*
X96661027Y-50372419D01*
X96661027Y-50372419D02*
X96565789Y-50324800D01*
X96565789Y-50324800D02*
X96518170Y-50229561D01*
X96518170Y-50229561D02*
X96518170Y-49848609D01*
X96518170Y-49848609D02*
X96565789Y-49753371D01*
X96565789Y-49753371D02*
X96661027Y-49705752D01*
X96661027Y-49705752D02*
X96851503Y-49705752D01*
X96851503Y-49705752D02*
X96946741Y-49753371D01*
X96946741Y-49753371D02*
X96994360Y-49848609D01*
X96994360Y-49848609D02*
X96994360Y-49943847D01*
X96994360Y-49943847D02*
X96518170Y-50039085D01*
X97375313Y-50324800D02*
X97470551Y-50372419D01*
X97470551Y-50372419D02*
X97661027Y-50372419D01*
X97661027Y-50372419D02*
X97756265Y-50324800D01*
X97756265Y-50324800D02*
X97803884Y-50229561D01*
X97803884Y-50229561D02*
X97803884Y-50181942D01*
X97803884Y-50181942D02*
X97756265Y-50086704D01*
X97756265Y-50086704D02*
X97661027Y-50039085D01*
X97661027Y-50039085D02*
X97518170Y-50039085D01*
X97518170Y-50039085D02*
X97422932Y-49991466D01*
X97422932Y-49991466D02*
X97375313Y-49896228D01*
X97375313Y-49896228D02*
X97375313Y-49848609D01*
X97375313Y-49848609D02*
X97422932Y-49753371D01*
X97422932Y-49753371D02*
X97518170Y-49705752D01*
X97518170Y-49705752D02*
X97661027Y-49705752D01*
X97661027Y-49705752D02*
X97756265Y-49753371D01*
X98232456Y-50372419D02*
X98232456Y-49705752D01*
X98232456Y-49372419D02*
X98184837Y-49420038D01*
X98184837Y-49420038D02*
X98232456Y-49467657D01*
X98232456Y-49467657D02*
X98280075Y-49420038D01*
X98280075Y-49420038D02*
X98232456Y-49372419D01*
X98232456Y-49372419D02*
X98232456Y-49467657D01*
X99137217Y-49705752D02*
X99137217Y-50515276D01*
X99137217Y-50515276D02*
X99089598Y-50610514D01*
X99089598Y-50610514D02*
X99041979Y-50658133D01*
X99041979Y-50658133D02*
X98946741Y-50705752D01*
X98946741Y-50705752D02*
X98803884Y-50705752D01*
X98803884Y-50705752D02*
X98708646Y-50658133D01*
X99137217Y-50324800D02*
X99041979Y-50372419D01*
X99041979Y-50372419D02*
X98851503Y-50372419D01*
X98851503Y-50372419D02*
X98756265Y-50324800D01*
X98756265Y-50324800D02*
X98708646Y-50277180D01*
X98708646Y-50277180D02*
X98661027Y-50181942D01*
X98661027Y-50181942D02*
X98661027Y-49896228D01*
X98661027Y-49896228D02*
X98708646Y-49800990D01*
X98708646Y-49800990D02*
X98756265Y-49753371D01*
X98756265Y-49753371D02*
X98851503Y-49705752D01*
X98851503Y-49705752D02*
X99041979Y-49705752D01*
X99041979Y-49705752D02*
X99137217Y-49753371D01*
X99613408Y-49705752D02*
X99613408Y-50372419D01*
X99613408Y-49800990D02*
X99661027Y-49753371D01*
X99661027Y-49753371D02*
X99756265Y-49705752D01*
X99756265Y-49705752D02*
X99899122Y-49705752D01*
X99899122Y-49705752D02*
X99994360Y-49753371D01*
X99994360Y-49753371D02*
X100041979Y-49848609D01*
X100041979Y-49848609D02*
X100041979Y-50372419D01*
D11*
X106584819Y-58441666D02*
X106108628Y-58774999D01*
X106584819Y-59013094D02*
X105584819Y-59013094D01*
X105584819Y-59013094D02*
X105584819Y-58632142D01*
X105584819Y-58632142D02*
X105632438Y-58536904D01*
X105632438Y-58536904D02*
X105680057Y-58489285D01*
X105680057Y-58489285D02*
X105775295Y-58441666D01*
X105775295Y-58441666D02*
X105918152Y-58441666D01*
X105918152Y-58441666D02*
X106013390Y-58489285D01*
X106013390Y-58489285D02*
X106061009Y-58536904D01*
X106061009Y-58536904D02*
X106108628Y-58632142D01*
X106108628Y-58632142D02*
X106108628Y-59013094D01*
X105584819Y-58108332D02*
X105584819Y-57489285D01*
X105584819Y-57489285D02*
X105965771Y-57822618D01*
X105965771Y-57822618D02*
X105965771Y-57679761D01*
X105965771Y-57679761D02*
X106013390Y-57584523D01*
X106013390Y-57584523D02*
X106061009Y-57536904D01*
X106061009Y-57536904D02*
X106156247Y-57489285D01*
X106156247Y-57489285D02*
X106394342Y-57489285D01*
X106394342Y-57489285D02*
X106489580Y-57536904D01*
X106489580Y-57536904D02*
X106537200Y-57584523D01*
X106537200Y-57584523D02*
X106584819Y-57679761D01*
X106584819Y-57679761D02*
X106584819Y-57965475D01*
X106584819Y-57965475D02*
X106537200Y-58060713D01*
X106537200Y-58060713D02*
X106489580Y-58108332D01*
X100544819Y-89071904D02*
X101354342Y-89071904D01*
X101354342Y-89071904D02*
X101449580Y-89024285D01*
X101449580Y-89024285D02*
X101497200Y-88976666D01*
X101497200Y-88976666D02*
X101544819Y-88881428D01*
X101544819Y-88881428D02*
X101544819Y-88690952D01*
X101544819Y-88690952D02*
X101497200Y-88595714D01*
X101497200Y-88595714D02*
X101449580Y-88548095D01*
X101449580Y-88548095D02*
X101354342Y-88500476D01*
X101354342Y-88500476D02*
X100544819Y-88500476D01*
X101544819Y-87500476D02*
X101544819Y-88071904D01*
X101544819Y-87786190D02*
X100544819Y-87786190D01*
X100544819Y-87786190D02*
X100687676Y-87881428D01*
X100687676Y-87881428D02*
X100782914Y-87976666D01*
X100782914Y-87976666D02*
X100830533Y-88071904D01*
X101584819Y-58441666D02*
X101108628Y-58774999D01*
X101584819Y-59013094D02*
X100584819Y-59013094D01*
X100584819Y-59013094D02*
X100584819Y-58632142D01*
X100584819Y-58632142D02*
X100632438Y-58536904D01*
X100632438Y-58536904D02*
X100680057Y-58489285D01*
X100680057Y-58489285D02*
X100775295Y-58441666D01*
X100775295Y-58441666D02*
X100918152Y-58441666D01*
X100918152Y-58441666D02*
X101013390Y-58489285D01*
X101013390Y-58489285D02*
X101061009Y-58536904D01*
X101061009Y-58536904D02*
X101108628Y-58632142D01*
X101108628Y-58632142D02*
X101108628Y-59013094D01*
X101584819Y-57489285D02*
X101584819Y-58060713D01*
X101584819Y-57774999D02*
X100584819Y-57774999D01*
X100584819Y-57774999D02*
X100727676Y-57870237D01*
X100727676Y-57870237D02*
X100822914Y-57965475D01*
X100822914Y-57965475D02*
X100870533Y-58060713D01*
X96357200Y-94375832D02*
X96404819Y-94232975D01*
X96404819Y-94232975D02*
X96404819Y-93994880D01*
X96404819Y-93994880D02*
X96357200Y-93899642D01*
X96357200Y-93899642D02*
X96309580Y-93852023D01*
X96309580Y-93852023D02*
X96214342Y-93804404D01*
X96214342Y-93804404D02*
X96119104Y-93804404D01*
X96119104Y-93804404D02*
X96023866Y-93852023D01*
X96023866Y-93852023D02*
X95976247Y-93899642D01*
X95976247Y-93899642D02*
X95928628Y-93994880D01*
X95928628Y-93994880D02*
X95881009Y-94185356D01*
X95881009Y-94185356D02*
X95833390Y-94280594D01*
X95833390Y-94280594D02*
X95785771Y-94328213D01*
X95785771Y-94328213D02*
X95690533Y-94375832D01*
X95690533Y-94375832D02*
X95595295Y-94375832D01*
X95595295Y-94375832D02*
X95500057Y-94328213D01*
X95500057Y-94328213D02*
X95452438Y-94280594D01*
X95452438Y-94280594D02*
X95404819Y-94185356D01*
X95404819Y-94185356D02*
X95404819Y-93947261D01*
X95404819Y-93947261D02*
X95452438Y-93804404D01*
X95404819Y-93471070D02*
X96404819Y-93232975D01*
X96404819Y-93232975D02*
X95690533Y-93042499D01*
X95690533Y-93042499D02*
X96404819Y-92852023D01*
X96404819Y-92852023D02*
X95404819Y-92613928D01*
X96404819Y-91709166D02*
X96404819Y-92280594D01*
X96404819Y-91994880D02*
X95404819Y-91994880D01*
X95404819Y-91994880D02*
X95547676Y-92090118D01*
X95547676Y-92090118D02*
X95642914Y-92185356D01*
X95642914Y-92185356D02*
X95690533Y-92280594D01*
X117190476Y-68299819D02*
X117190476Y-67299819D01*
X117190476Y-67299819D02*
X117523809Y-68014104D01*
X117523809Y-68014104D02*
X117857142Y-67299819D01*
X117857142Y-67299819D02*
X117857142Y-68299819D01*
X118333333Y-68299819D02*
X118333333Y-67299819D01*
X118904761Y-68299819D02*
X118476190Y-67728390D01*
X118904761Y-67299819D02*
X118333333Y-67871247D01*
X119857142Y-68299819D02*
X119285714Y-68299819D01*
X119571428Y-68299819D02*
X119571428Y-67299819D01*
X119571428Y-67299819D02*
X119476190Y-67442676D01*
X119476190Y-67442676D02*
X119380952Y-67537914D01*
X119380952Y-67537914D02*
X119285714Y-67585533D01*
X104261905Y-68994819D02*
X104261905Y-67994819D01*
X104261905Y-67994819D02*
X104500000Y-67994819D01*
X104500000Y-67994819D02*
X104642857Y-68042438D01*
X104642857Y-68042438D02*
X104738095Y-68137676D01*
X104738095Y-68137676D02*
X104785714Y-68232914D01*
X104785714Y-68232914D02*
X104833333Y-68423390D01*
X104833333Y-68423390D02*
X104833333Y-68566247D01*
X104833333Y-68566247D02*
X104785714Y-68756723D01*
X104785714Y-68756723D02*
X104738095Y-68851961D01*
X104738095Y-68851961D02*
X104642857Y-68947200D01*
X104642857Y-68947200D02*
X104500000Y-68994819D01*
X104500000Y-68994819D02*
X104261905Y-68994819D01*
X105785714Y-68994819D02*
X105214286Y-68994819D01*
X105500000Y-68994819D02*
X105500000Y-67994819D01*
X105500000Y-67994819D02*
X105404762Y-68137676D01*
X105404762Y-68137676D02*
X105309524Y-68232914D01*
X105309524Y-68232914D02*
X105214286Y-68280533D01*
X111908333Y-69054819D02*
X111575000Y-68578628D01*
X111336905Y-69054819D02*
X111336905Y-68054819D01*
X111336905Y-68054819D02*
X111717857Y-68054819D01*
X111717857Y-68054819D02*
X111813095Y-68102438D01*
X111813095Y-68102438D02*
X111860714Y-68150057D01*
X111860714Y-68150057D02*
X111908333Y-68245295D01*
X111908333Y-68245295D02*
X111908333Y-68388152D01*
X111908333Y-68388152D02*
X111860714Y-68483390D01*
X111860714Y-68483390D02*
X111813095Y-68531009D01*
X111813095Y-68531009D02*
X111717857Y-68578628D01*
X111717857Y-68578628D02*
X111336905Y-68578628D01*
X112289286Y-68150057D02*
X112336905Y-68102438D01*
X112336905Y-68102438D02*
X112432143Y-68054819D01*
X112432143Y-68054819D02*
X112670238Y-68054819D01*
X112670238Y-68054819D02*
X112765476Y-68102438D01*
X112765476Y-68102438D02*
X112813095Y-68150057D01*
X112813095Y-68150057D02*
X112860714Y-68245295D01*
X112860714Y-68245295D02*
X112860714Y-68340533D01*
X112860714Y-68340533D02*
X112813095Y-68483390D01*
X112813095Y-68483390D02*
X112241667Y-69054819D01*
X112241667Y-69054819D02*
X112860714Y-69054819D01*
X70814285Y-62311009D02*
X70957142Y-62358628D01*
X70957142Y-62358628D02*
X71004761Y-62406247D01*
X71004761Y-62406247D02*
X71052380Y-62501485D01*
X71052380Y-62501485D02*
X71052380Y-62644342D01*
X71052380Y-62644342D02*
X71004761Y-62739580D01*
X71004761Y-62739580D02*
X70957142Y-62787200D01*
X70957142Y-62787200D02*
X70861904Y-62834819D01*
X70861904Y-62834819D02*
X70480952Y-62834819D01*
X70480952Y-62834819D02*
X70480952Y-61834819D01*
X70480952Y-61834819D02*
X70814285Y-61834819D01*
X70814285Y-61834819D02*
X70909523Y-61882438D01*
X70909523Y-61882438D02*
X70957142Y-61930057D01*
X70957142Y-61930057D02*
X71004761Y-62025295D01*
X71004761Y-62025295D02*
X71004761Y-62120533D01*
X71004761Y-62120533D02*
X70957142Y-62215771D01*
X70957142Y-62215771D02*
X70909523Y-62263390D01*
X70909523Y-62263390D02*
X70814285Y-62311009D01*
X70814285Y-62311009D02*
X70480952Y-62311009D01*
X71338095Y-61834819D02*
X71909523Y-61834819D01*
X71623809Y-62834819D02*
X71623809Y-61834819D01*
X72766666Y-62834819D02*
X72195238Y-62834819D01*
X72480952Y-62834819D02*
X72480952Y-61834819D01*
X72480952Y-61834819D02*
X72385714Y-61977676D01*
X72385714Y-61977676D02*
X72290476Y-62072914D01*
X72290476Y-62072914D02*
X72195238Y-62120533D01*
X111584819Y-58441666D02*
X111108628Y-58774999D01*
X111584819Y-59013094D02*
X110584819Y-59013094D01*
X110584819Y-59013094D02*
X110584819Y-58632142D01*
X110584819Y-58632142D02*
X110632438Y-58536904D01*
X110632438Y-58536904D02*
X110680057Y-58489285D01*
X110680057Y-58489285D02*
X110775295Y-58441666D01*
X110775295Y-58441666D02*
X110918152Y-58441666D01*
X110918152Y-58441666D02*
X111013390Y-58489285D01*
X111013390Y-58489285D02*
X111061009Y-58536904D01*
X111061009Y-58536904D02*
X111108628Y-58632142D01*
X111108628Y-58632142D02*
X111108628Y-59013094D01*
X110918152Y-57584523D02*
X111584819Y-57584523D01*
X110537200Y-57822618D02*
X111251485Y-58060713D01*
X111251485Y-58060713D02*
X111251485Y-57441666D01*
D12*
%TO.C,R3*%
X108500000Y-58175000D02*
X108500000Y-58105000D01*
X109870000Y-59545000D02*
G75*
G02*
X107130000Y-59545000I-1370000J0D01*
G01*
X107130000Y-59545000D02*
G75*
G02*
X109870000Y-59545000I1370000J0D01*
G01*
%TO.C,U1*%
X102090000Y-85660000D02*
X102090000Y-87310000D01*
X102090000Y-89310000D02*
X102090000Y-90960000D01*
X102090000Y-90960000D02*
X112370000Y-90960000D01*
X112370000Y-85660000D02*
X102090000Y-85660000D01*
X112370000Y-90960000D02*
X112370000Y-85660000D01*
X102090000Y-87310000D02*
G75*
G02*
X102090000Y-89310000I0J-1000000D01*
G01*
%TO.C,R1*%
X103500000Y-58175000D02*
X103500000Y-58105000D01*
X104870000Y-59545000D02*
G75*
G02*
X102130000Y-59545000I-1370000J0D01*
G01*
X102130000Y-59545000D02*
G75*
G02*
X104870000Y-59545000I1370000J0D01*
G01*
%TO.C,SW1*%
X88400000Y-97992500D02*
X88400000Y-88092500D01*
X89150000Y-86042500D02*
X94350000Y-86042500D01*
X94350000Y-100042500D02*
X89150000Y-100042500D01*
X94750000Y-85742500D02*
X96050000Y-85742500D01*
X95100000Y-88092500D02*
X95100000Y-97992500D01*
X96050000Y-85742500D02*
X96050000Y-87042500D01*
%TO.C,MK1*%
X117120000Y-68845000D02*
X118500000Y-68845000D01*
X117120000Y-70225000D02*
X117120000Y-68845000D01*
X117120000Y-71495000D02*
X117120000Y-74145000D01*
X117120000Y-71495000D02*
X119880000Y-71495000D01*
X117120000Y-74145000D02*
X119880000Y-74145000D01*
X119880000Y-71495000D02*
X119880000Y-74145000D01*
%TO.C,D1*%
X103440000Y-70264000D02*
X103440000Y-70420000D01*
X103440000Y-72580000D02*
X103440000Y-72736000D01*
X103440000Y-70264484D02*
G75*
G02*
X106671397Y-70419939I1560000J-1235516D01*
G01*
X103959039Y-70420000D02*
G75*
G02*
X106040910Y-70419951I1040961J-1080000D01*
G01*
X106040910Y-72580049D02*
G75*
G02*
X103959039Y-72580000I-1040910J1080049D01*
G01*
X106671397Y-72580061D02*
G75*
G02*
X103440000Y-72735516I-1671397J1080061D01*
G01*
%TO.C,R2*%
X110525000Y-69350000D02*
X113575000Y-69350000D01*
X110525000Y-73650000D02*
X113575000Y-73650000D01*
X110525000Y-73650000D02*
G75*
G02*
X110546766Y-69334475I1550000J2150000D01*
G01*
X113575000Y-69350000D02*
G75*
G02*
X113619513Y-73618249I-1500000J-2150000D01*
G01*
%TO.C,BT1*%
X70170000Y-63390000D02*
X73345000Y-63390000D01*
X70170000Y-74610000D02*
X70170000Y-63390000D01*
X73345000Y-74610000D02*
X70170000Y-74610000D01*
X73345000Y-63390000D02*
G75*
G02*
X73345000Y-74610000I12435000J-5610000D01*
G01*
%TO.C,R4*%
X113500000Y-58175000D02*
X113500000Y-58105000D01*
X114870000Y-59545000D02*
G75*
G02*
X112130000Y-59545000I-1370000J0D01*
G01*
X112130000Y-59545000D02*
G75*
G02*
X114870000Y-59545000I1370000J0D01*
G01*
%TD*%
M02*
