%TF.GenerationSoftware,KiCad,Pcbnew,9.0.1*%
%TF.CreationDate,2025-06-16T09:39:09+05:30*%
%TF.ProjectId,project1,70726f6a-6563-4743-912e-6b696361645f,rev?*%
%TF.SameCoordinates,Original*%
%TF.FileFunction,Legend,Bot*%
%TF.FilePolarity,Positive*%
%FSLAX46Y46*%
G04 Gerber Fmt 4.6, Leading zero omitted, Abs format (unit mm)*
G04 Created by KiCad (PCBNEW 9.0.1) date 2025-06-16 09:39:09*
%MOMM*%
%LPD*%
G01*
G04 APERTURE LIST*
%ADD10C,0.010000*%
G04 APERTURE END LIST*
D10*
%TO.C,REF\u002A\u002A*%
X91343698Y-54141141D02*
X91369419Y-54156839D01*
X91396070Y-54178419D01*
X91396070Y-54825876D01*
X91369419Y-54847456D01*
X91338059Y-54864931D01*
X91302258Y-54865767D01*
X91270820Y-54845274D01*
X91266944Y-54840608D01*
X91261478Y-54831141D01*
X91257271Y-54817459D01*
X91254159Y-54796940D01*
X91251979Y-54766960D01*
X91250568Y-54724896D01*
X91249763Y-54668124D01*
X91249399Y-54594022D01*
X91249314Y-54499965D01*
X91249314Y-54178419D01*
X91275965Y-54156839D01*
X91299678Y-54142069D01*
X91322692Y-54135259D01*
X91343698Y-54141141D01*
G36*
X91343698Y-54141141D02*
G01*
X91369419Y-54156839D01*
X91396070Y-54178419D01*
X91396070Y-54825876D01*
X91369419Y-54847456D01*
X91338059Y-54864931D01*
X91302258Y-54865767D01*
X91270820Y-54845274D01*
X91266944Y-54840608D01*
X91261478Y-54831141D01*
X91257271Y-54817459D01*
X91254159Y-54796940D01*
X91251979Y-54766960D01*
X91250568Y-54724896D01*
X91249763Y-54668124D01*
X91249399Y-54594022D01*
X91249314Y-54499965D01*
X91249314Y-54178419D01*
X91275965Y-54156839D01*
X91299678Y-54142069D01*
X91322692Y-54135259D01*
X91343698Y-54141141D01*
G37*
X98474429Y-54139655D02*
X98508583Y-54162968D01*
X98536292Y-54190677D01*
X98536292Y-54503729D01*
X98536251Y-54587759D01*
X98535993Y-54661981D01*
X98535322Y-54718733D01*
X98534044Y-54760704D01*
X98531965Y-54790581D01*
X98528891Y-54811053D01*
X98524626Y-54824806D01*
X98518976Y-54834529D01*
X98511747Y-54842909D01*
X98480283Y-54864373D01*
X98445118Y-54866139D01*
X98412114Y-54846459D01*
X98406808Y-54840590D01*
X98401358Y-54831506D01*
X98397192Y-54818165D01*
X98394138Y-54797949D01*
X98392024Y-54768241D01*
X98390678Y-54726424D01*
X98389930Y-54669881D01*
X98389606Y-54595994D01*
X98389537Y-54502148D01*
X98389576Y-54426486D01*
X98389831Y-54348577D01*
X98390475Y-54288567D01*
X98391679Y-54243840D01*
X98393616Y-54211777D01*
X98396456Y-54189763D01*
X98400371Y-54175179D01*
X98405534Y-54165410D01*
X98412114Y-54157837D01*
X98441298Y-54138815D01*
X98474429Y-54139655D01*
G36*
X98474429Y-54139655D02*
G01*
X98508583Y-54162968D01*
X98536292Y-54190677D01*
X98536292Y-54503729D01*
X98536251Y-54587759D01*
X98535993Y-54661981D01*
X98535322Y-54718733D01*
X98534044Y-54760704D01*
X98531965Y-54790581D01*
X98528891Y-54811053D01*
X98524626Y-54824806D01*
X98518976Y-54834529D01*
X98511747Y-54842909D01*
X98480283Y-54864373D01*
X98445118Y-54866139D01*
X98412114Y-54846459D01*
X98406808Y-54840590D01*
X98401358Y-54831506D01*
X98397192Y-54818165D01*
X98394138Y-54797949D01*
X98392024Y-54768241D01*
X98390678Y-54726424D01*
X98389930Y-54669881D01*
X98389606Y-54595994D01*
X98389537Y-54502148D01*
X98389576Y-54426486D01*
X98389831Y-54348577D01*
X98390475Y-54288567D01*
X98391679Y-54243840D01*
X98393616Y-54211777D01*
X98396456Y-54189763D01*
X98400371Y-54175179D01*
X98405534Y-54165410D01*
X98412114Y-54157837D01*
X98441298Y-54138815D01*
X98474429Y-54139655D01*
G37*
X98441012Y-47526581D02*
X98546536Y-47552436D01*
X98646560Y-47598841D01*
X98737934Y-47665803D01*
X98817505Y-47753328D01*
X98882120Y-47861426D01*
X98899443Y-47899506D01*
X98913477Y-47938103D01*
X98921352Y-47976689D01*
X98924803Y-48024415D01*
X98925568Y-48090433D01*
X98925105Y-48145381D01*
X98922319Y-48195880D01*
X98915487Y-48235280D01*
X98902904Y-48272628D01*
X98882864Y-48316973D01*
X98877066Y-48328791D01*
X98808545Y-48437001D01*
X98722365Y-48526033D01*
X98620972Y-48593797D01*
X98506811Y-48638206D01*
X98448234Y-48650598D01*
X98329399Y-48656397D01*
X98214300Y-48637634D01*
X98106312Y-48596232D01*
X98008809Y-48534115D01*
X97925168Y-48453207D01*
X97858763Y-48355432D01*
X97812969Y-48242714D01*
X97796214Y-48150471D01*
X97794705Y-48048677D01*
X97808332Y-47949660D01*
X97836445Y-47863892D01*
X97868930Y-47802573D01*
X97941247Y-47705288D01*
X98026978Y-47628507D01*
X98122973Y-47572238D01*
X98226079Y-47536490D01*
X98333142Y-47521268D01*
X98441012Y-47526581D01*
G36*
X98441012Y-47526581D02*
G01*
X98546536Y-47552436D01*
X98646560Y-47598841D01*
X98737934Y-47665803D01*
X98817505Y-47753328D01*
X98882120Y-47861426D01*
X98899443Y-47899506D01*
X98913477Y-47938103D01*
X98921352Y-47976689D01*
X98924803Y-48024415D01*
X98925568Y-48090433D01*
X98925105Y-48145381D01*
X98922319Y-48195880D01*
X98915487Y-48235280D01*
X98902904Y-48272628D01*
X98882864Y-48316973D01*
X98877066Y-48328791D01*
X98808545Y-48437001D01*
X98722365Y-48526033D01*
X98620972Y-48593797D01*
X98506811Y-48638206D01*
X98448234Y-48650598D01*
X98329399Y-48656397D01*
X98214300Y-48637634D01*
X98106312Y-48596232D01*
X98008809Y-48534115D01*
X97925168Y-48453207D01*
X97858763Y-48355432D01*
X97812969Y-48242714D01*
X97796214Y-48150471D01*
X97794705Y-48048677D01*
X97808332Y-47949660D01*
X97836445Y-47863892D01*
X97868930Y-47802573D01*
X97941247Y-47705288D01*
X98026978Y-47628507D01*
X98122973Y-47572238D01*
X98226079Y-47536490D01*
X98333142Y-47521268D01*
X98441012Y-47526581D01*
G37*
X90644059Y-54135260D02*
X90738182Y-54135350D01*
X90812697Y-54135690D01*
X90870103Y-54136431D01*
X90912903Y-54137727D01*
X90943596Y-54139729D01*
X90964683Y-54142588D01*
X90978665Y-54146458D01*
X90988042Y-54151490D01*
X90995314Y-54157837D01*
X91014120Y-54190554D01*
X91015567Y-54228131D01*
X90999209Y-54261370D01*
X90997849Y-54262823D01*
X90986646Y-54271184D01*
X90969544Y-54276739D01*
X90942374Y-54280032D01*
X90900970Y-54281610D01*
X90841165Y-54282014D01*
X90701803Y-54282014D01*
X90701803Y-54545781D01*
X90701728Y-54621609D01*
X90701320Y-54688275D01*
X90700338Y-54738059D01*
X90698542Y-54773976D01*
X90695691Y-54799042D01*
X90691545Y-54816273D01*
X90685863Y-54828684D01*
X90678406Y-54839292D01*
X90676116Y-54842098D01*
X90644938Y-54864740D01*
X90610558Y-54866304D01*
X90577626Y-54846459D01*
X90570647Y-54838383D01*
X90565175Y-54827785D01*
X90561155Y-54811941D01*
X90558364Y-54787965D01*
X90556580Y-54752966D01*
X90555581Y-54704056D01*
X90555144Y-54638346D01*
X90555048Y-54552948D01*
X90555048Y-54282014D01*
X90409112Y-54282014D01*
X90398012Y-54282013D01*
X90341494Y-54281788D01*
X90302650Y-54280649D01*
X90277257Y-54277849D01*
X90261096Y-54272642D01*
X90249944Y-54264281D01*
X90239581Y-54252018D01*
X90223733Y-54221330D01*
X90226835Y-54187550D01*
X90252479Y-54155014D01*
X90257421Y-54151297D01*
X90267630Y-54146461D01*
X90283056Y-54142698D01*
X90306178Y-54139875D01*
X90339475Y-54137862D01*
X90385429Y-54136525D01*
X90446520Y-54135734D01*
X90525227Y-54135355D01*
X90624032Y-54135259D01*
X90644059Y-54135260D01*
G36*
X90644059Y-54135260D02*
G01*
X90738182Y-54135350D01*
X90812697Y-54135690D01*
X90870103Y-54136431D01*
X90912903Y-54137727D01*
X90943596Y-54139729D01*
X90964683Y-54142588D01*
X90978665Y-54146458D01*
X90988042Y-54151490D01*
X90995314Y-54157837D01*
X91014120Y-54190554D01*
X91015567Y-54228131D01*
X90999209Y-54261370D01*
X90997849Y-54262823D01*
X90986646Y-54271184D01*
X90969544Y-54276739D01*
X90942374Y-54280032D01*
X90900970Y-54281610D01*
X90841165Y-54282014D01*
X90701803Y-54282014D01*
X90701803Y-54545781D01*
X90701728Y-54621609D01*
X90701320Y-54688275D01*
X90700338Y-54738059D01*
X90698542Y-54773976D01*
X90695691Y-54799042D01*
X90691545Y-54816273D01*
X90685863Y-54828684D01*
X90678406Y-54839292D01*
X90676116Y-54842098D01*
X90644938Y-54864740D01*
X90610558Y-54866304D01*
X90577626Y-54846459D01*
X90570647Y-54838383D01*
X90565175Y-54827785D01*
X90561155Y-54811941D01*
X90558364Y-54787965D01*
X90556580Y-54752966D01*
X90555581Y-54704056D01*
X90555144Y-54638346D01*
X90555048Y-54552948D01*
X90555048Y-54282014D01*
X90409112Y-54282014D01*
X90398012Y-54282013D01*
X90341494Y-54281788D01*
X90302650Y-54280649D01*
X90277257Y-54277849D01*
X90261096Y-54272642D01*
X90249944Y-54264281D01*
X90239581Y-54252018D01*
X90223733Y-54221330D01*
X90226835Y-54187550D01*
X90252479Y-54155014D01*
X90257421Y-54151297D01*
X90267630Y-54146461D01*
X90283056Y-54142698D01*
X90306178Y-54139875D01*
X90339475Y-54137862D01*
X90385429Y-54136525D01*
X90446520Y-54135734D01*
X90525227Y-54135355D01*
X90624032Y-54135259D01*
X90644059Y-54135260D01*
G37*
X89968026Y-54157837D02*
X89973658Y-54164027D01*
X89978748Y-54172233D01*
X89982835Y-54184009D01*
X89986013Y-54201468D01*
X89988379Y-54226722D01*
X89990030Y-54261882D01*
X89991061Y-54309061D01*
X89991569Y-54370369D01*
X89991651Y-54447919D01*
X89991401Y-54543823D01*
X89990917Y-54660192D01*
X89990849Y-54674367D01*
X89990263Y-54736129D01*
X89988940Y-54779812D01*
X89986395Y-54809193D01*
X89982140Y-54828047D01*
X89975688Y-54840151D01*
X89966554Y-54849281D01*
X89933096Y-54866698D01*
X89898148Y-54863796D01*
X89867245Y-54839292D01*
X89858236Y-54826089D01*
X89850784Y-54807553D01*
X89846416Y-54781525D01*
X89844361Y-54742979D01*
X89843848Y-54686892D01*
X89843848Y-54564237D01*
X89347137Y-54564237D01*
X89347137Y-54699063D01*
X89347064Y-54734854D01*
X89346301Y-54781184D01*
X89344125Y-54811718D01*
X89339828Y-54830749D01*
X89332704Y-54842566D01*
X89322047Y-54851463D01*
X89289796Y-54866533D01*
X89254509Y-54863865D01*
X89223778Y-54839292D01*
X89219123Y-54833037D01*
X89213187Y-54822513D01*
X89208656Y-54808583D01*
X89205340Y-54788509D01*
X89203051Y-54759552D01*
X89201600Y-54718972D01*
X89200797Y-54664032D01*
X89200454Y-54591991D01*
X89200381Y-54500112D01*
X89200381Y-54190677D01*
X89228090Y-54162968D01*
X89259469Y-54140725D01*
X89292698Y-54138036D01*
X89324559Y-54157837D01*
X89332845Y-54167607D01*
X89340257Y-54183499D01*
X89344594Y-54207467D01*
X89346630Y-54244340D01*
X89347137Y-54298948D01*
X89347137Y-54417481D01*
X89843848Y-54417481D01*
X89843848Y-54301968D01*
X89844286Y-54250270D01*
X89846250Y-54215746D01*
X89850766Y-54193170D01*
X89858859Y-54177318D01*
X89871557Y-54162968D01*
X89902935Y-54140725D01*
X89936164Y-54138036D01*
X89968026Y-54157837D01*
G36*
X89968026Y-54157837D02*
G01*
X89973658Y-54164027D01*
X89978748Y-54172233D01*
X89982835Y-54184009D01*
X89986013Y-54201468D01*
X89988379Y-54226722D01*
X89990030Y-54261882D01*
X89991061Y-54309061D01*
X89991569Y-54370369D01*
X89991651Y-54447919D01*
X89991401Y-54543823D01*
X89990917Y-54660192D01*
X89990849Y-54674367D01*
X89990263Y-54736129D01*
X89988940Y-54779812D01*
X89986395Y-54809193D01*
X89982140Y-54828047D01*
X89975688Y-54840151D01*
X89966554Y-54849281D01*
X89933096Y-54866698D01*
X89898148Y-54863796D01*
X89867245Y-54839292D01*
X89858236Y-54826089D01*
X89850784Y-54807553D01*
X89846416Y-54781525D01*
X89844361Y-54742979D01*
X89843848Y-54686892D01*
X89843848Y-54564237D01*
X89347137Y-54564237D01*
X89347137Y-54699063D01*
X89347064Y-54734854D01*
X89346301Y-54781184D01*
X89344125Y-54811718D01*
X89339828Y-54830749D01*
X89332704Y-54842566D01*
X89322047Y-54851463D01*
X89289796Y-54866533D01*
X89254509Y-54863865D01*
X89223778Y-54839292D01*
X89219123Y-54833037D01*
X89213187Y-54822513D01*
X89208656Y-54808583D01*
X89205340Y-54788509D01*
X89203051Y-54759552D01*
X89201600Y-54718972D01*
X89200797Y-54664032D01*
X89200454Y-54591991D01*
X89200381Y-54500112D01*
X89200381Y-54190677D01*
X89228090Y-54162968D01*
X89259469Y-54140725D01*
X89292698Y-54138036D01*
X89324559Y-54157837D01*
X89332845Y-54167607D01*
X89340257Y-54183499D01*
X89344594Y-54207467D01*
X89346630Y-54244340D01*
X89347137Y-54298948D01*
X89347137Y-54417481D01*
X89843848Y-54417481D01*
X89843848Y-54301968D01*
X89844286Y-54250270D01*
X89846250Y-54215746D01*
X89850766Y-54193170D01*
X89858859Y-54177318D01*
X89871557Y-54162968D01*
X89902935Y-54140725D01*
X89936164Y-54138036D01*
X89968026Y-54157837D01*
G37*
X94673425Y-54746588D02*
X94671455Y-54779367D01*
X94668527Y-54802287D01*
X94664450Y-54818089D01*
X94659035Y-54829511D01*
X94652095Y-54839292D01*
X94628698Y-54869037D01*
X94463006Y-54868443D01*
X94428210Y-54868145D01*
X94329727Y-54864714D01*
X94248765Y-54857031D01*
X94181671Y-54844474D01*
X94124788Y-54826419D01*
X94074461Y-54802244D01*
X94071102Y-54800327D01*
X94013290Y-54763609D01*
X93970936Y-54726643D01*
X93938120Y-54683158D01*
X93908920Y-54626881D01*
X93904638Y-54617265D01*
X93882061Y-54554079D01*
X93876326Y-54508525D01*
X94025571Y-54508525D01*
X94031184Y-54533253D01*
X94036910Y-54549131D01*
X94069840Y-54609039D01*
X94117178Y-54654792D01*
X94180944Y-54687928D01*
X94263153Y-54709982D01*
X94265947Y-54710484D01*
X94312232Y-54716447D01*
X94368628Y-54720675D01*
X94423566Y-54722281D01*
X94517448Y-54722281D01*
X94517448Y-54282014D01*
X94429959Y-54282462D01*
X94363039Y-54284938D01*
X94270641Y-54296190D01*
X94191326Y-54315729D01*
X94129352Y-54342703D01*
X94098412Y-54363432D01*
X94070292Y-54393198D01*
X94046952Y-54435626D01*
X94039825Y-54451592D01*
X94028001Y-54484094D01*
X94025571Y-54508525D01*
X93876326Y-54508525D01*
X93875089Y-54498701D01*
X93883691Y-54443675D01*
X93907833Y-54381543D01*
X93908629Y-54379850D01*
X93949080Y-54310428D01*
X93999765Y-54253830D01*
X94062490Y-54209262D01*
X94139066Y-54175933D01*
X94231301Y-54153053D01*
X94341004Y-54139828D01*
X94469983Y-54135467D01*
X94473555Y-54135462D01*
X94533575Y-54135602D01*
X94575506Y-54136638D01*
X94603620Y-54139232D01*
X94622189Y-54144045D01*
X94635486Y-54151736D01*
X94647783Y-54162968D01*
X94675492Y-54190677D01*
X94675492Y-54500112D01*
X94675467Y-54561718D01*
X94675242Y-54640503D01*
X94674624Y-54701213D01*
X94674067Y-54722281D01*
X94673425Y-54746588D01*
G36*
X94673425Y-54746588D02*
G01*
X94671455Y-54779367D01*
X94668527Y-54802287D01*
X94664450Y-54818089D01*
X94659035Y-54829511D01*
X94652095Y-54839292D01*
X94628698Y-54869037D01*
X94463006Y-54868443D01*
X94428210Y-54868145D01*
X94329727Y-54864714D01*
X94248765Y-54857031D01*
X94181671Y-54844474D01*
X94124788Y-54826419D01*
X94074461Y-54802244D01*
X94071102Y-54800327D01*
X94013290Y-54763609D01*
X93970936Y-54726643D01*
X93938120Y-54683158D01*
X93908920Y-54626881D01*
X93904638Y-54617265D01*
X93882061Y-54554079D01*
X93876326Y-54508525D01*
X94025571Y-54508525D01*
X94031184Y-54533253D01*
X94036910Y-54549131D01*
X94069840Y-54609039D01*
X94117178Y-54654792D01*
X94180944Y-54687928D01*
X94263153Y-54709982D01*
X94265947Y-54710484D01*
X94312232Y-54716447D01*
X94368628Y-54720675D01*
X94423566Y-54722281D01*
X94517448Y-54722281D01*
X94517448Y-54282014D01*
X94429959Y-54282462D01*
X94363039Y-54284938D01*
X94270641Y-54296190D01*
X94191326Y-54315729D01*
X94129352Y-54342703D01*
X94098412Y-54363432D01*
X94070292Y-54393198D01*
X94046952Y-54435626D01*
X94039825Y-54451592D01*
X94028001Y-54484094D01*
X94025571Y-54508525D01*
X93876326Y-54508525D01*
X93875089Y-54498701D01*
X93883691Y-54443675D01*
X93907833Y-54381543D01*
X93908629Y-54379850D01*
X93949080Y-54310428D01*
X93999765Y-54253830D01*
X94062490Y-54209262D01*
X94139066Y-54175933D01*
X94231301Y-54153053D01*
X94341004Y-54139828D01*
X94469983Y-54135467D01*
X94473555Y-54135462D01*
X94533575Y-54135602D01*
X94575506Y-54136638D01*
X94603620Y-54139232D01*
X94622189Y-54144045D01*
X94635486Y-54151736D01*
X94647783Y-54162968D01*
X94675492Y-54190677D01*
X94675492Y-54500112D01*
X94675467Y-54561718D01*
X94675242Y-54640503D01*
X94674624Y-54701213D01*
X94674067Y-54722281D01*
X94673425Y-54746588D01*
G37*
X101765109Y-54320619D02*
X101765162Y-54401233D01*
X101764914Y-54502148D01*
X101764875Y-54577809D01*
X101764620Y-54655718D01*
X101763976Y-54715728D01*
X101762772Y-54760456D01*
X101760835Y-54792518D01*
X101757995Y-54814532D01*
X101754080Y-54829116D01*
X101748918Y-54838886D01*
X101742337Y-54846459D01*
X101735369Y-54852693D01*
X101722371Y-54859993D01*
X101703223Y-54864746D01*
X101673820Y-54867484D01*
X101630054Y-54868737D01*
X101567820Y-54869037D01*
X101518874Y-54868661D01*
X101412014Y-54864233D01*
X101322786Y-54854145D01*
X101247988Y-54837557D01*
X101184417Y-54813627D01*
X101128871Y-54781513D01*
X101078146Y-54740374D01*
X101072158Y-54734522D01*
X101035291Y-54686013D01*
X101004191Y-54625205D01*
X100982709Y-54560961D01*
X100977428Y-54522218D01*
X101124645Y-54522218D01*
X101142927Y-54573153D01*
X101172597Y-54619070D01*
X101219294Y-54661479D01*
X101280684Y-54691282D01*
X101359830Y-54710418D01*
X101361320Y-54710656D01*
X101410291Y-54716448D01*
X101468985Y-54720588D01*
X101525026Y-54722196D01*
X101618159Y-54722281D01*
X101618159Y-54282014D01*
X101541959Y-54282000D01*
X101538931Y-54282009D01*
X101487811Y-54283974D01*
X101427708Y-54288699D01*
X101371000Y-54295227D01*
X101321042Y-54304523D01*
X101246290Y-54330792D01*
X101188781Y-54370091D01*
X101147280Y-54423125D01*
X101126063Y-54474392D01*
X101124645Y-54522218D01*
X100977428Y-54522218D01*
X100974692Y-54502148D01*
X100975971Y-54480931D01*
X100988283Y-54423515D01*
X101010812Y-54363605D01*
X101040042Y-54309555D01*
X101072459Y-54269724D01*
X101092000Y-54252702D01*
X101146712Y-54213514D01*
X101207015Y-54183385D01*
X101276211Y-54161424D01*
X101357603Y-54146742D01*
X101454492Y-54138451D01*
X101570181Y-54135659D01*
X101609663Y-54135258D01*
X101655374Y-54134845D01*
X101691175Y-54136649D01*
X101718266Y-54142931D01*
X101737848Y-54155951D01*
X101751122Y-54177970D01*
X101759290Y-54211247D01*
X101763552Y-54258043D01*
X101764149Y-54282014D01*
X101765109Y-54320619D01*
G36*
X101765109Y-54320619D02*
G01*
X101765162Y-54401233D01*
X101764914Y-54502148D01*
X101764875Y-54577809D01*
X101764620Y-54655718D01*
X101763976Y-54715728D01*
X101762772Y-54760456D01*
X101760835Y-54792518D01*
X101757995Y-54814532D01*
X101754080Y-54829116D01*
X101748918Y-54838886D01*
X101742337Y-54846459D01*
X101735369Y-54852693D01*
X101722371Y-54859993D01*
X101703223Y-54864746D01*
X101673820Y-54867484D01*
X101630054Y-54868737D01*
X101567820Y-54869037D01*
X101518874Y-54868661D01*
X101412014Y-54864233D01*
X101322786Y-54854145D01*
X101247988Y-54837557D01*
X101184417Y-54813627D01*
X101128871Y-54781513D01*
X101078146Y-54740374D01*
X101072158Y-54734522D01*
X101035291Y-54686013D01*
X101004191Y-54625205D01*
X100982709Y-54560961D01*
X100977428Y-54522218D01*
X101124645Y-54522218D01*
X101142927Y-54573153D01*
X101172597Y-54619070D01*
X101219294Y-54661479D01*
X101280684Y-54691282D01*
X101359830Y-54710418D01*
X101361320Y-54710656D01*
X101410291Y-54716448D01*
X101468985Y-54720588D01*
X101525026Y-54722196D01*
X101618159Y-54722281D01*
X101618159Y-54282014D01*
X101541959Y-54282000D01*
X101538931Y-54282009D01*
X101487811Y-54283974D01*
X101427708Y-54288699D01*
X101371000Y-54295227D01*
X101321042Y-54304523D01*
X101246290Y-54330792D01*
X101188781Y-54370091D01*
X101147280Y-54423125D01*
X101126063Y-54474392D01*
X101124645Y-54522218D01*
X100977428Y-54522218D01*
X100974692Y-54502148D01*
X100975971Y-54480931D01*
X100988283Y-54423515D01*
X101010812Y-54363605D01*
X101040042Y-54309555D01*
X101072459Y-54269724D01*
X101092000Y-54252702D01*
X101146712Y-54213514D01*
X101207015Y-54183385D01*
X101276211Y-54161424D01*
X101357603Y-54146742D01*
X101454492Y-54138451D01*
X101570181Y-54135659D01*
X101609663Y-54135258D01*
X101655374Y-54134845D01*
X101691175Y-54136649D01*
X101718266Y-54142931D01*
X101737848Y-54155951D01*
X101751122Y-54177970D01*
X101759290Y-54211247D01*
X101763552Y-54258043D01*
X101764149Y-54282014D01*
X101765109Y-54320619D01*
G37*
X96820185Y-54134084D02*
X96831593Y-54140221D01*
X96842142Y-54150883D01*
X96853428Y-54165003D01*
X96857881Y-54170964D01*
X96863880Y-54181460D01*
X96868459Y-54195285D01*
X96871811Y-54215190D01*
X96874125Y-54243924D01*
X96875593Y-54284237D01*
X96876405Y-54338879D01*
X96876752Y-54410599D01*
X96876826Y-54502148D01*
X96876803Y-54560678D01*
X96876584Y-54639765D01*
X96875975Y-54700708D01*
X96874784Y-54746254D01*
X96872821Y-54779155D01*
X96869895Y-54802160D01*
X96865815Y-54818018D01*
X96860389Y-54829478D01*
X96853428Y-54839292D01*
X96823000Y-54863685D01*
X96788057Y-54866564D01*
X96751076Y-54847474D01*
X96746892Y-54843999D01*
X96738716Y-54835471D01*
X96732656Y-54823920D01*
X96728273Y-54806088D01*
X96725131Y-54778716D01*
X96722794Y-54738546D01*
X96720823Y-54682320D01*
X96718781Y-54606781D01*
X96713137Y-54387650D01*
X96447848Y-54628291D01*
X96374014Y-54695067D01*
X96308834Y-54753183D01*
X96256640Y-54798141D01*
X96215565Y-54831063D01*
X96183747Y-54853071D01*
X96159318Y-54865286D01*
X96140416Y-54868831D01*
X96125175Y-54864828D01*
X96111731Y-54854399D01*
X96098219Y-54838666D01*
X96091974Y-54830183D01*
X96086342Y-54819605D01*
X96082131Y-54805447D01*
X96079179Y-54784995D01*
X96077324Y-54755534D01*
X96076405Y-54714353D01*
X96076260Y-54658736D01*
X96076727Y-54585971D01*
X96077644Y-54493343D01*
X96080959Y-54178391D01*
X96107610Y-54156825D01*
X96133675Y-54140633D01*
X96166533Y-54137862D01*
X96201064Y-54156815D01*
X96205376Y-54160400D01*
X96213508Y-54168929D01*
X96219537Y-54180521D01*
X96223898Y-54198427D01*
X96227026Y-54225898D01*
X96229355Y-54266186D01*
X96231321Y-54322543D01*
X96233359Y-54398221D01*
X96239003Y-54618070D01*
X96419626Y-54454276D01*
X96506364Y-54375643D01*
X96582135Y-54307250D01*
X96644272Y-54251900D01*
X96694370Y-54208530D01*
X96734027Y-54176073D01*
X96764840Y-54153465D01*
X96788406Y-54139640D01*
X96806322Y-54133535D01*
X96820185Y-54134084D01*
G36*
X96820185Y-54134084D02*
G01*
X96831593Y-54140221D01*
X96842142Y-54150883D01*
X96853428Y-54165003D01*
X96857881Y-54170964D01*
X96863880Y-54181460D01*
X96868459Y-54195285D01*
X96871811Y-54215190D01*
X96874125Y-54243924D01*
X96875593Y-54284237D01*
X96876405Y-54338879D01*
X96876752Y-54410599D01*
X96876826Y-54502148D01*
X96876803Y-54560678D01*
X96876584Y-54639765D01*
X96875975Y-54700708D01*
X96874784Y-54746254D01*
X96872821Y-54779155D01*
X96869895Y-54802160D01*
X96865815Y-54818018D01*
X96860389Y-54829478D01*
X96853428Y-54839292D01*
X96823000Y-54863685D01*
X96788057Y-54866564D01*
X96751076Y-54847474D01*
X96746892Y-54843999D01*
X96738716Y-54835471D01*
X96732656Y-54823920D01*
X96728273Y-54806088D01*
X96725131Y-54778716D01*
X96722794Y-54738546D01*
X96720823Y-54682320D01*
X96718781Y-54606781D01*
X96713137Y-54387650D01*
X96447848Y-54628291D01*
X96374014Y-54695067D01*
X96308834Y-54753183D01*
X96256640Y-54798141D01*
X96215565Y-54831063D01*
X96183747Y-54853071D01*
X96159318Y-54865286D01*
X96140416Y-54868831D01*
X96125175Y-54864828D01*
X96111731Y-54854399D01*
X96098219Y-54838666D01*
X96091974Y-54830183D01*
X96086342Y-54819605D01*
X96082131Y-54805447D01*
X96079179Y-54784995D01*
X96077324Y-54755534D01*
X96076405Y-54714353D01*
X96076260Y-54658736D01*
X96076727Y-54585971D01*
X96077644Y-54493343D01*
X96080959Y-54178391D01*
X96107610Y-54156825D01*
X96133675Y-54140633D01*
X96166533Y-54137862D01*
X96201064Y-54156815D01*
X96205376Y-54160400D01*
X96213508Y-54168929D01*
X96219537Y-54180521D01*
X96223898Y-54198427D01*
X96227026Y-54225898D01*
X96229355Y-54266186D01*
X96231321Y-54322543D01*
X96233359Y-54398221D01*
X96239003Y-54618070D01*
X96419626Y-54454276D01*
X96506364Y-54375643D01*
X96582135Y-54307250D01*
X96644272Y-54251900D01*
X96694370Y-54208530D01*
X96734027Y-54176073D01*
X96764840Y-54153465D01*
X96788406Y-54139640D01*
X96806322Y-54133535D01*
X96820185Y-54134084D01*
G37*
X97617442Y-54140371D02*
X97723449Y-54156686D01*
X97817261Y-54184737D01*
X97896057Y-54223644D01*
X97957011Y-54272526D01*
X97983081Y-54305387D01*
X98012589Y-54354586D01*
X98037860Y-54408444D01*
X98055510Y-54459611D01*
X98062150Y-54500736D01*
X98060590Y-54520451D01*
X98047649Y-54571784D01*
X98024486Y-54628310D01*
X97994594Y-54682227D01*
X97961465Y-54725731D01*
X97951269Y-54736079D01*
X97884184Y-54787854D01*
X97804058Y-54827746D01*
X97717848Y-54852148D01*
X97662884Y-54860260D01*
X97569431Y-54866865D01*
X97479650Y-54864778D01*
X97397161Y-54854532D01*
X97325578Y-54836662D01*
X97268520Y-54811700D01*
X97229603Y-54780180D01*
X97228228Y-54778204D01*
X97221140Y-54752978D01*
X97216901Y-54705727D01*
X97215492Y-54636263D01*
X97216352Y-54574030D01*
X97221072Y-54526648D01*
X97232762Y-54494545D01*
X97254531Y-54474992D01*
X97289490Y-54465262D01*
X97340748Y-54462625D01*
X97411415Y-54464353D01*
X97460035Y-54467365D01*
X97510231Y-54475558D01*
X97542725Y-54489611D01*
X97560184Y-54510846D01*
X97565275Y-54540586D01*
X97565169Y-54545128D01*
X97556467Y-54579922D01*
X97532457Y-54603339D01*
X97491192Y-54616539D01*
X97430723Y-54620681D01*
X97362248Y-54620681D01*
X97362248Y-54659033D01*
X97362298Y-54668168D01*
X97364519Y-54685419D01*
X97373786Y-54695713D01*
X97395167Y-54702651D01*
X97433728Y-54709833D01*
X97439202Y-54710767D01*
X97536152Y-54720670D01*
X97626144Y-54717751D01*
X97707052Y-54703021D01*
X97776751Y-54677491D01*
X97833116Y-54642170D01*
X97874021Y-54598071D01*
X97897343Y-54546204D01*
X97900955Y-54487580D01*
X97895437Y-54458686D01*
X97868753Y-54402796D01*
X97822565Y-54357137D01*
X97757583Y-54322300D01*
X97674521Y-54298882D01*
X97649847Y-54294433D01*
X97560518Y-54283934D01*
X97480711Y-54285163D01*
X97402618Y-54298098D01*
X97367475Y-54304888D01*
X97322037Y-54305905D01*
X97290722Y-54293374D01*
X97270569Y-54266587D01*
X97264185Y-54238340D01*
X97273671Y-54207116D01*
X97283000Y-54193691D01*
X97317235Y-54170159D01*
X97369857Y-54152287D01*
X97438373Y-54140791D01*
X97520292Y-54136384D01*
X97617442Y-54140371D01*
G36*
X97617442Y-54140371D02*
G01*
X97723449Y-54156686D01*
X97817261Y-54184737D01*
X97896057Y-54223644D01*
X97957011Y-54272526D01*
X97983081Y-54305387D01*
X98012589Y-54354586D01*
X98037860Y-54408444D01*
X98055510Y-54459611D01*
X98062150Y-54500736D01*
X98060590Y-54520451D01*
X98047649Y-54571784D01*
X98024486Y-54628310D01*
X97994594Y-54682227D01*
X97961465Y-54725731D01*
X97951269Y-54736079D01*
X97884184Y-54787854D01*
X97804058Y-54827746D01*
X97717848Y-54852148D01*
X97662884Y-54860260D01*
X97569431Y-54866865D01*
X97479650Y-54864778D01*
X97397161Y-54854532D01*
X97325578Y-54836662D01*
X97268520Y-54811700D01*
X97229603Y-54780180D01*
X97228228Y-54778204D01*
X97221140Y-54752978D01*
X97216901Y-54705727D01*
X97215492Y-54636263D01*
X97216352Y-54574030D01*
X97221072Y-54526648D01*
X97232762Y-54494545D01*
X97254531Y-54474992D01*
X97289490Y-54465262D01*
X97340748Y-54462625D01*
X97411415Y-54464353D01*
X97460035Y-54467365D01*
X97510231Y-54475558D01*
X97542725Y-54489611D01*
X97560184Y-54510846D01*
X97565275Y-54540586D01*
X97565169Y-54545128D01*
X97556467Y-54579922D01*
X97532457Y-54603339D01*
X97491192Y-54616539D01*
X97430723Y-54620681D01*
X97362248Y-54620681D01*
X97362248Y-54659033D01*
X97362298Y-54668168D01*
X97364519Y-54685419D01*
X97373786Y-54695713D01*
X97395167Y-54702651D01*
X97433728Y-54709833D01*
X97439202Y-54710767D01*
X97536152Y-54720670D01*
X97626144Y-54717751D01*
X97707052Y-54703021D01*
X97776751Y-54677491D01*
X97833116Y-54642170D01*
X97874021Y-54598071D01*
X97897343Y-54546204D01*
X97900955Y-54487580D01*
X97895437Y-54458686D01*
X97868753Y-54402796D01*
X97822565Y-54357137D01*
X97757583Y-54322300D01*
X97674521Y-54298882D01*
X97649847Y-54294433D01*
X97560518Y-54283934D01*
X97480711Y-54285163D01*
X97402618Y-54298098D01*
X97367475Y-54304888D01*
X97322037Y-54305905D01*
X97290722Y-54293374D01*
X97270569Y-54266587D01*
X97264185Y-54238340D01*
X97273671Y-54207116D01*
X97283000Y-54193691D01*
X97317235Y-54170159D01*
X97369857Y-54152287D01*
X97438373Y-54140791D01*
X97520292Y-54136384D01*
X97617442Y-54140371D01*
G37*
X95668095Y-54165003D02*
X95673044Y-54171687D01*
X95678888Y-54182258D01*
X95683349Y-54196345D01*
X95686613Y-54216670D01*
X95688866Y-54245957D01*
X95690294Y-54286929D01*
X95691084Y-54342309D01*
X95691421Y-54414820D01*
X95691492Y-54507186D01*
X95691463Y-54573103D01*
X95691231Y-54651420D01*
X95690611Y-54711688D01*
X95689418Y-54756585D01*
X95687471Y-54788794D01*
X95684586Y-54810992D01*
X95680580Y-54825861D01*
X95675271Y-54836081D01*
X95668475Y-54844330D01*
X95663960Y-54848987D01*
X95655730Y-54855474D01*
X95644370Y-54860386D01*
X95627102Y-54863941D01*
X95601147Y-54866359D01*
X95563728Y-54867859D01*
X95512065Y-54868659D01*
X95443381Y-54868979D01*
X95354898Y-54869037D01*
X95335223Y-54869030D01*
X95248198Y-54868764D01*
X95180546Y-54867998D01*
X95129591Y-54866584D01*
X95092659Y-54864372D01*
X95067075Y-54861214D01*
X95050163Y-54856961D01*
X95039249Y-54851463D01*
X95028756Y-54841477D01*
X95015495Y-54810360D01*
X95016678Y-54774472D01*
X95032842Y-54742925D01*
X95035031Y-54740649D01*
X95043719Y-54734381D01*
X95057061Y-54729715D01*
X95078044Y-54726419D01*
X95109655Y-54724260D01*
X95154882Y-54723006D01*
X95216712Y-54722423D01*
X95298131Y-54722281D01*
X95544737Y-54722281D01*
X95544737Y-54564237D01*
X95382298Y-54564237D01*
X95346630Y-54564156D01*
X95290860Y-54563359D01*
X95251722Y-54561354D01*
X95225268Y-54557713D01*
X95207551Y-54552004D01*
X95194621Y-54543799D01*
X95190978Y-54540615D01*
X95172570Y-54509640D01*
X95171936Y-54473304D01*
X95189475Y-54439685D01*
X95189537Y-54439616D01*
X95199208Y-54430990D01*
X95212501Y-54424934D01*
X95233209Y-54421003D01*
X95265120Y-54418748D01*
X95312026Y-54417723D01*
X95377716Y-54417481D01*
X95545863Y-54417481D01*
X95542478Y-54352570D01*
X95539092Y-54287659D01*
X95297015Y-54284606D01*
X95271999Y-54284278D01*
X95190379Y-54282798D01*
X95128060Y-54280414D01*
X95082446Y-54276419D01*
X95050944Y-54270105D01*
X95030959Y-54260766D01*
X95019896Y-54247695D01*
X95015161Y-54230184D01*
X95014159Y-54207527D01*
X95014165Y-54205162D01*
X95015319Y-54185131D01*
X95020116Y-54169338D01*
X95030924Y-54157282D01*
X95050109Y-54148459D01*
X95080037Y-54142367D01*
X95123075Y-54138503D01*
X95181591Y-54136366D01*
X95257949Y-54135452D01*
X95354518Y-54135259D01*
X95644698Y-54135259D01*
X95668095Y-54165003D01*
G36*
X95668095Y-54165003D02*
G01*
X95673044Y-54171687D01*
X95678888Y-54182258D01*
X95683349Y-54196345D01*
X95686613Y-54216670D01*
X95688866Y-54245957D01*
X95690294Y-54286929D01*
X95691084Y-54342309D01*
X95691421Y-54414820D01*
X95691492Y-54507186D01*
X95691463Y-54573103D01*
X95691231Y-54651420D01*
X95690611Y-54711688D01*
X95689418Y-54756585D01*
X95687471Y-54788794D01*
X95684586Y-54810992D01*
X95680580Y-54825861D01*
X95675271Y-54836081D01*
X95668475Y-54844330D01*
X95663960Y-54848987D01*
X95655730Y-54855474D01*
X95644370Y-54860386D01*
X95627102Y-54863941D01*
X95601147Y-54866359D01*
X95563728Y-54867859D01*
X95512065Y-54868659D01*
X95443381Y-54868979D01*
X95354898Y-54869037D01*
X95335223Y-54869030D01*
X95248198Y-54868764D01*
X95180546Y-54867998D01*
X95129591Y-54866584D01*
X95092659Y-54864372D01*
X95067075Y-54861214D01*
X95050163Y-54856961D01*
X95039249Y-54851463D01*
X95028756Y-54841477D01*
X95015495Y-54810360D01*
X95016678Y-54774472D01*
X95032842Y-54742925D01*
X95035031Y-54740649D01*
X95043719Y-54734381D01*
X95057061Y-54729715D01*
X95078044Y-54726419D01*
X95109655Y-54724260D01*
X95154882Y-54723006D01*
X95216712Y-54722423D01*
X95298131Y-54722281D01*
X95544737Y-54722281D01*
X95544737Y-54564237D01*
X95382298Y-54564237D01*
X95346630Y-54564156D01*
X95290860Y-54563359D01*
X95251722Y-54561354D01*
X95225268Y-54557713D01*
X95207551Y-54552004D01*
X95194621Y-54543799D01*
X95190978Y-54540615D01*
X95172570Y-54509640D01*
X95171936Y-54473304D01*
X95189475Y-54439685D01*
X95189537Y-54439616D01*
X95199208Y-54430990D01*
X95212501Y-54424934D01*
X95233209Y-54421003D01*
X95265120Y-54418748D01*
X95312026Y-54417723D01*
X95377716Y-54417481D01*
X95545863Y-54417481D01*
X95542478Y-54352570D01*
X95539092Y-54287659D01*
X95297015Y-54284606D01*
X95271999Y-54284278D01*
X95190379Y-54282798D01*
X95128060Y-54280414D01*
X95082446Y-54276419D01*
X95050944Y-54270105D01*
X95030959Y-54260766D01*
X95019896Y-54247695D01*
X95015161Y-54230184D01*
X95014159Y-54207527D01*
X95014165Y-54205162D01*
X95015319Y-54185131D01*
X95020116Y-54169338D01*
X95030924Y-54157282D01*
X95050109Y-54148459D01*
X95080037Y-54142367D01*
X95123075Y-54138503D01*
X95181591Y-54136366D01*
X95257949Y-54135452D01*
X95354518Y-54135259D01*
X95644698Y-54135259D01*
X95668095Y-54165003D01*
G37*
X100345026Y-54135275D02*
X100422123Y-54135467D01*
X100481069Y-54136052D01*
X100524656Y-54137243D01*
X100555675Y-54139256D01*
X100576917Y-54142304D01*
X100591174Y-54146601D01*
X100601237Y-54152364D01*
X100609898Y-54159804D01*
X100611683Y-54161485D01*
X100618927Y-54169024D01*
X100624569Y-54178042D01*
X100628809Y-54191176D01*
X100631848Y-54211064D01*
X100633886Y-54240343D01*
X100635122Y-54281650D01*
X100635757Y-54337623D01*
X100635992Y-54410899D01*
X100636026Y-54504115D01*
X100635989Y-54576905D01*
X100635740Y-54655081D01*
X100635104Y-54715295D01*
X100633907Y-54760174D01*
X100631976Y-54792344D01*
X100629138Y-54814431D01*
X100625219Y-54829062D01*
X100620047Y-54838862D01*
X100613448Y-54846459D01*
X100610114Y-54849636D01*
X100601592Y-54855746D01*
X100589590Y-54860421D01*
X100571379Y-54863851D01*
X100544232Y-54866228D01*
X100505421Y-54867744D01*
X100452216Y-54868590D01*
X100381890Y-54868957D01*
X100291714Y-54869037D01*
X100249606Y-54869025D01*
X100168459Y-54868843D01*
X100105967Y-54868290D01*
X100059401Y-54867174D01*
X100026033Y-54865305D01*
X100003136Y-54862490D01*
X99987980Y-54858538D01*
X99977838Y-54853258D01*
X99969981Y-54846459D01*
X99955255Y-54824859D01*
X99947403Y-54795659D01*
X99952902Y-54771752D01*
X99969981Y-54744859D01*
X99974960Y-54740251D01*
X99984735Y-54733964D01*
X99998851Y-54729338D01*
X100020346Y-54726122D01*
X100052260Y-54724062D01*
X100097634Y-54722904D01*
X100159505Y-54722394D01*
X100240914Y-54722281D01*
X100489270Y-54722281D01*
X100489270Y-54564237D01*
X100328093Y-54564237D01*
X100292275Y-54564091D01*
X100226651Y-54562368D01*
X100179410Y-54557933D01*
X100147675Y-54549829D01*
X100128569Y-54537098D01*
X100119215Y-54518784D01*
X100116737Y-54493930D01*
X100117534Y-54473674D01*
X100122786Y-54451848D01*
X100135580Y-54436496D01*
X100158920Y-54426501D01*
X100195809Y-54420745D01*
X100249251Y-54418111D01*
X100322250Y-54417481D01*
X100490397Y-54417481D01*
X100487011Y-54352570D01*
X100483626Y-54287659D01*
X100235909Y-54284610D01*
X100173318Y-54283731D01*
X100104857Y-54282287D01*
X100053953Y-54280356D01*
X100017700Y-54277706D01*
X99993193Y-54274102D01*
X99977527Y-54269313D01*
X99967798Y-54263105D01*
X99961783Y-54256702D01*
X99948774Y-54225020D01*
X99952335Y-54189334D01*
X99972110Y-54158276D01*
X99975361Y-54155353D01*
X99984341Y-54149002D01*
X99996445Y-54144149D01*
X100014451Y-54140595D01*
X100041139Y-54138138D01*
X100079289Y-54136577D01*
X100131678Y-54135710D01*
X100201086Y-54135338D01*
X100290293Y-54135259D01*
X100345026Y-54135275D01*
G36*
X100345026Y-54135275D02*
G01*
X100422123Y-54135467D01*
X100481069Y-54136052D01*
X100524656Y-54137243D01*
X100555675Y-54139256D01*
X100576917Y-54142304D01*
X100591174Y-54146601D01*
X100601237Y-54152364D01*
X100609898Y-54159804D01*
X100611683Y-54161485D01*
X100618927Y-54169024D01*
X100624569Y-54178042D01*
X100628809Y-54191176D01*
X100631848Y-54211064D01*
X100633886Y-54240343D01*
X100635122Y-54281650D01*
X100635757Y-54337623D01*
X100635992Y-54410899D01*
X100636026Y-54504115D01*
X100635989Y-54576905D01*
X100635740Y-54655081D01*
X100635104Y-54715295D01*
X100633907Y-54760174D01*
X100631976Y-54792344D01*
X100629138Y-54814431D01*
X100625219Y-54829062D01*
X100620047Y-54838862D01*
X100613448Y-54846459D01*
X100610114Y-54849636D01*
X100601592Y-54855746D01*
X100589590Y-54860421D01*
X100571379Y-54863851D01*
X100544232Y-54866228D01*
X100505421Y-54867744D01*
X100452216Y-54868590D01*
X100381890Y-54868957D01*
X100291714Y-54869037D01*
X100249606Y-54869025D01*
X100168459Y-54868843D01*
X100105967Y-54868290D01*
X100059401Y-54867174D01*
X100026033Y-54865305D01*
X100003136Y-54862490D01*
X99987980Y-54858538D01*
X99977838Y-54853258D01*
X99969981Y-54846459D01*
X99955255Y-54824859D01*
X99947403Y-54795659D01*
X99952902Y-54771752D01*
X99969981Y-54744859D01*
X99974960Y-54740251D01*
X99984735Y-54733964D01*
X99998851Y-54729338D01*
X100020346Y-54726122D01*
X100052260Y-54724062D01*
X100097634Y-54722904D01*
X100159505Y-54722394D01*
X100240914Y-54722281D01*
X100489270Y-54722281D01*
X100489270Y-54564237D01*
X100328093Y-54564237D01*
X100292275Y-54564091D01*
X100226651Y-54562368D01*
X100179410Y-54557933D01*
X100147675Y-54549829D01*
X100128569Y-54537098D01*
X100119215Y-54518784D01*
X100116737Y-54493930D01*
X100117534Y-54473674D01*
X100122786Y-54451848D01*
X100135580Y-54436496D01*
X100158920Y-54426501D01*
X100195809Y-54420745D01*
X100249251Y-54418111D01*
X100322250Y-54417481D01*
X100490397Y-54417481D01*
X100487011Y-54352570D01*
X100483626Y-54287659D01*
X100235909Y-54284610D01*
X100173318Y-54283731D01*
X100104857Y-54282287D01*
X100053953Y-54280356D01*
X100017700Y-54277706D01*
X99993193Y-54274102D01*
X99977527Y-54269313D01*
X99967798Y-54263105D01*
X99961783Y-54256702D01*
X99948774Y-54225020D01*
X99952335Y-54189334D01*
X99972110Y-54158276D01*
X99975361Y-54155353D01*
X99984341Y-54149002D01*
X99996445Y-54144149D01*
X100014451Y-54140595D01*
X100041139Y-54138138D01*
X100079289Y-54136577D01*
X100131678Y-54135710D01*
X100201086Y-54135338D01*
X100290293Y-54135259D01*
X100345026Y-54135275D01*
G37*
X91777994Y-54144670D02*
X91795955Y-54163181D01*
X91816555Y-54194263D01*
X91841387Y-54239948D01*
X91872042Y-54302270D01*
X91910112Y-54383263D01*
X91924746Y-54414646D01*
X91954495Y-54477830D01*
X91980589Y-54532436D01*
X92001584Y-54575482D01*
X92016031Y-54603985D01*
X92022483Y-54614962D01*
X92023842Y-54614381D01*
X92033834Y-54600434D01*
X92051125Y-54570896D01*
X92073722Y-54529279D01*
X92099630Y-54479095D01*
X92115603Y-54447606D01*
X92144553Y-54392253D01*
X92167041Y-54353236D01*
X92185257Y-54327758D01*
X92201388Y-54313023D01*
X92217622Y-54306234D01*
X92236149Y-54304592D01*
X92246652Y-54305067D01*
X92262768Y-54309274D01*
X92278082Y-54320138D01*
X92294680Y-54340411D01*
X92314649Y-54372846D01*
X92340075Y-54420196D01*
X92373044Y-54485214D01*
X92382777Y-54504469D01*
X92407235Y-54551138D01*
X92427470Y-54587301D01*
X92441603Y-54609689D01*
X92447752Y-54615037D01*
X92449119Y-54611765D01*
X92458494Y-54590856D01*
X92475354Y-54553917D01*
X92498271Y-54504066D01*
X92525812Y-54444418D01*
X92556547Y-54378090D01*
X92583262Y-54320869D01*
X92612885Y-54258880D01*
X92635956Y-54213141D01*
X92653935Y-54181100D01*
X92668282Y-54160206D01*
X92680458Y-54147910D01*
X92691924Y-54141658D01*
X92701334Y-54138766D01*
X92726439Y-54138617D01*
X92753582Y-54153960D01*
X92754882Y-54154945D01*
X92776966Y-54177580D01*
X92788015Y-54199805D01*
X92788061Y-54200445D01*
X92783520Y-54218107D01*
X92770656Y-54252673D01*
X92750897Y-54301018D01*
X92725673Y-54360017D01*
X92696411Y-54426547D01*
X92664542Y-54497483D01*
X92631493Y-54569699D01*
X92598693Y-54640072D01*
X92567572Y-54705477D01*
X92539557Y-54762789D01*
X92516078Y-54808884D01*
X92498564Y-54840638D01*
X92488443Y-54854925D01*
X92454035Y-54868294D01*
X92412338Y-54861933D01*
X92406973Y-54857236D01*
X92391144Y-54835085D01*
X92368942Y-54798324D01*
X92342525Y-54750607D01*
X92314052Y-54695585D01*
X92234278Y-54536342D01*
X92161091Y-54682934D01*
X92151395Y-54702224D01*
X92124417Y-54754572D01*
X92100388Y-54799362D01*
X92081624Y-54832346D01*
X92070438Y-54849281D01*
X92069292Y-54850524D01*
X92041171Y-54865811D01*
X92006109Y-54867494D01*
X91975068Y-54854925D01*
X91972642Y-54852076D01*
X91960382Y-54831451D01*
X91940644Y-54793900D01*
X91914740Y-54742072D01*
X91883977Y-54678615D01*
X91849667Y-54606177D01*
X91813117Y-54527408D01*
X91792877Y-54483285D01*
X91756104Y-54402557D01*
X91727647Y-54338879D01*
X91706623Y-54289944D01*
X91692146Y-54253449D01*
X91683331Y-54227087D01*
X91679296Y-54208553D01*
X91679154Y-54195544D01*
X91682022Y-54185753D01*
X91696679Y-54164870D01*
X91723282Y-54144569D01*
X91724037Y-54144227D01*
X91743627Y-54137226D01*
X91761082Y-54136696D01*
X91777994Y-54144670D01*
G36*
X91777994Y-54144670D02*
G01*
X91795955Y-54163181D01*
X91816555Y-54194263D01*
X91841387Y-54239948D01*
X91872042Y-54302270D01*
X91910112Y-54383263D01*
X91924746Y-54414646D01*
X91954495Y-54477830D01*
X91980589Y-54532436D01*
X92001584Y-54575482D01*
X92016031Y-54603985D01*
X92022483Y-54614962D01*
X92023842Y-54614381D01*
X92033834Y-54600434D01*
X92051125Y-54570896D01*
X92073722Y-54529279D01*
X92099630Y-54479095D01*
X92115603Y-54447606D01*
X92144553Y-54392253D01*
X92167041Y-54353236D01*
X92185257Y-54327758D01*
X92201388Y-54313023D01*
X92217622Y-54306234D01*
X92236149Y-54304592D01*
X92246652Y-54305067D01*
X92262768Y-54309274D01*
X92278082Y-54320138D01*
X92294680Y-54340411D01*
X92314649Y-54372846D01*
X92340075Y-54420196D01*
X92373044Y-54485214D01*
X92382777Y-54504469D01*
X92407235Y-54551138D01*
X92427470Y-54587301D01*
X92441603Y-54609689D01*
X92447752Y-54615037D01*
X92449119Y-54611765D01*
X92458494Y-54590856D01*
X92475354Y-54553917D01*
X92498271Y-54504066D01*
X92525812Y-54444418D01*
X92556547Y-54378090D01*
X92583262Y-54320869D01*
X92612885Y-54258880D01*
X92635956Y-54213141D01*
X92653935Y-54181100D01*
X92668282Y-54160206D01*
X92680458Y-54147910D01*
X92691924Y-54141658D01*
X92701334Y-54138766D01*
X92726439Y-54138617D01*
X92753582Y-54153960D01*
X92754882Y-54154945D01*
X92776966Y-54177580D01*
X92788015Y-54199805D01*
X92788061Y-54200445D01*
X92783520Y-54218107D01*
X92770656Y-54252673D01*
X92750897Y-54301018D01*
X92725673Y-54360017D01*
X92696411Y-54426547D01*
X92664542Y-54497483D01*
X92631493Y-54569699D01*
X92598693Y-54640072D01*
X92567572Y-54705477D01*
X92539557Y-54762789D01*
X92516078Y-54808884D01*
X92498564Y-54840638D01*
X92488443Y-54854925D01*
X92454035Y-54868294D01*
X92412338Y-54861933D01*
X92406973Y-54857236D01*
X92391144Y-54835085D01*
X92368942Y-54798324D01*
X92342525Y-54750607D01*
X92314052Y-54695585D01*
X92234278Y-54536342D01*
X92161091Y-54682934D01*
X92151395Y-54702224D01*
X92124417Y-54754572D01*
X92100388Y-54799362D01*
X92081624Y-54832346D01*
X92070438Y-54849281D01*
X92069292Y-54850524D01*
X92041171Y-54865811D01*
X92006109Y-54867494D01*
X91975068Y-54854925D01*
X91972642Y-54852076D01*
X91960382Y-54831451D01*
X91940644Y-54793900D01*
X91914740Y-54742072D01*
X91883977Y-54678615D01*
X91849667Y-54606177D01*
X91813117Y-54527408D01*
X91792877Y-54483285D01*
X91756104Y-54402557D01*
X91727647Y-54338879D01*
X91706623Y-54289944D01*
X91692146Y-54253449D01*
X91683331Y-54227087D01*
X91679296Y-54208553D01*
X91679154Y-54195544D01*
X91682022Y-54185753D01*
X91696679Y-54164870D01*
X91723282Y-54144569D01*
X91724037Y-54144227D01*
X91743627Y-54137226D01*
X91761082Y-54136696D01*
X91777994Y-54144670D01*
G37*
X99329145Y-54136128D02*
X99395392Y-54141558D01*
X99450692Y-54151156D01*
X99501575Y-54166017D01*
X99572887Y-54199150D01*
X99624044Y-54241832D01*
X99654867Y-54293897D01*
X99665181Y-54355175D01*
X99664244Y-54386424D01*
X99658452Y-54411221D01*
X99643645Y-54432891D01*
X99615672Y-54460241D01*
X99607694Y-54467570D01*
X99583984Y-54488473D01*
X99561590Y-54505443D01*
X99537557Y-54519397D01*
X99508929Y-54531248D01*
X99472752Y-54541912D01*
X99426072Y-54552303D01*
X99365933Y-54563338D01*
X99289382Y-54575930D01*
X99193463Y-54590996D01*
X99175100Y-54594030D01*
X99112770Y-54607650D01*
X99067552Y-54623384D01*
X99041268Y-54640455D01*
X99035739Y-54658089D01*
X99038360Y-54662360D01*
X99056292Y-54677425D01*
X99084418Y-54694059D01*
X99097218Y-54700049D01*
X99118516Y-54707242D01*
X99144902Y-54712019D01*
X99180746Y-54714838D01*
X99230420Y-54716156D01*
X99298292Y-54716429D01*
X99316077Y-54716356D01*
X99383698Y-54715245D01*
X99448637Y-54713020D01*
X99504262Y-54709954D01*
X99543943Y-54706319D01*
X99579454Y-54702251D01*
X99608707Y-54701468D01*
X99627607Y-54706068D01*
X99642721Y-54716743D01*
X99646377Y-54720336D01*
X99662719Y-54752110D01*
X99661399Y-54787764D01*
X99642442Y-54818382D01*
X99622072Y-54829988D01*
X99586088Y-54842683D01*
X99543664Y-54852733D01*
X99540214Y-54853332D01*
X99497544Y-54858548D01*
X99440158Y-54862922D01*
X99375141Y-54866010D01*
X99309581Y-54867369D01*
X99293349Y-54867410D01*
X99195036Y-54864933D01*
X99114984Y-54856927D01*
X99049805Y-54842395D01*
X98996109Y-54820341D01*
X98950508Y-54789768D01*
X98909615Y-54749678D01*
X98889494Y-54723451D01*
X98877868Y-54693904D01*
X98874959Y-54654187D01*
X98875100Y-54642218D01*
X98878973Y-54609537D01*
X98891357Y-54583011D01*
X98916522Y-54552163D01*
X98937734Y-54530023D01*
X98964130Y-54507477D01*
X98993847Y-54489109D01*
X99030077Y-54473853D01*
X99076009Y-54460641D01*
X99134836Y-54448406D01*
X99209748Y-54436081D01*
X99303937Y-54422598D01*
X99349249Y-54415588D01*
X99417203Y-54401029D01*
X99466339Y-54384529D01*
X99495906Y-54366631D01*
X99505156Y-54347877D01*
X99493340Y-54328807D01*
X99459708Y-54309963D01*
X99456662Y-54308749D01*
X99410303Y-54296671D01*
X99347653Y-54288471D01*
X99274219Y-54284311D01*
X99195509Y-54284353D01*
X99117031Y-54288761D01*
X99044292Y-54297697D01*
X99040365Y-54298346D01*
X98991549Y-54306053D01*
X98959297Y-54309665D01*
X98938300Y-54309068D01*
X98923246Y-54304146D01*
X98908826Y-54294788D01*
X98907656Y-54293917D01*
X98883139Y-54263543D01*
X98878346Y-54228042D01*
X98894152Y-54193461D01*
X98898698Y-54189005D01*
X98928312Y-54173865D01*
X98975294Y-54160742D01*
X99035598Y-54149942D01*
X99105180Y-54141773D01*
X99179995Y-54136543D01*
X99255998Y-54134559D01*
X99329145Y-54136128D01*
G36*
X99329145Y-54136128D02*
G01*
X99395392Y-54141558D01*
X99450692Y-54151156D01*
X99501575Y-54166017D01*
X99572887Y-54199150D01*
X99624044Y-54241832D01*
X99654867Y-54293897D01*
X99665181Y-54355175D01*
X99664244Y-54386424D01*
X99658452Y-54411221D01*
X99643645Y-54432891D01*
X99615672Y-54460241D01*
X99607694Y-54467570D01*
X99583984Y-54488473D01*
X99561590Y-54505443D01*
X99537557Y-54519397D01*
X99508929Y-54531248D01*
X99472752Y-54541912D01*
X99426072Y-54552303D01*
X99365933Y-54563338D01*
X99289382Y-54575930D01*
X99193463Y-54590996D01*
X99175100Y-54594030D01*
X99112770Y-54607650D01*
X99067552Y-54623384D01*
X99041268Y-54640455D01*
X99035739Y-54658089D01*
X99038360Y-54662360D01*
X99056292Y-54677425D01*
X99084418Y-54694059D01*
X99097218Y-54700049D01*
X99118516Y-54707242D01*
X99144902Y-54712019D01*
X99180746Y-54714838D01*
X99230420Y-54716156D01*
X99298292Y-54716429D01*
X99316077Y-54716356D01*
X99383698Y-54715245D01*
X99448637Y-54713020D01*
X99504262Y-54709954D01*
X99543943Y-54706319D01*
X99579454Y-54702251D01*
X99608707Y-54701468D01*
X99627607Y-54706068D01*
X99642721Y-54716743D01*
X99646377Y-54720336D01*
X99662719Y-54752110D01*
X99661399Y-54787764D01*
X99642442Y-54818382D01*
X99622072Y-54829988D01*
X99586088Y-54842683D01*
X99543664Y-54852733D01*
X99540214Y-54853332D01*
X99497544Y-54858548D01*
X99440158Y-54862922D01*
X99375141Y-54866010D01*
X99309581Y-54867369D01*
X99293349Y-54867410D01*
X99195036Y-54864933D01*
X99114984Y-54856927D01*
X99049805Y-54842395D01*
X98996109Y-54820341D01*
X98950508Y-54789768D01*
X98909615Y-54749678D01*
X98889494Y-54723451D01*
X98877868Y-54693904D01*
X98874959Y-54654187D01*
X98875100Y-54642218D01*
X98878973Y-54609537D01*
X98891357Y-54583011D01*
X98916522Y-54552163D01*
X98937734Y-54530023D01*
X98964130Y-54507477D01*
X98993847Y-54489109D01*
X99030077Y-54473853D01*
X99076009Y-54460641D01*
X99134836Y-54448406D01*
X99209748Y-54436081D01*
X99303937Y-54422598D01*
X99349249Y-54415588D01*
X99417203Y-54401029D01*
X99466339Y-54384529D01*
X99495906Y-54366631D01*
X99505156Y-54347877D01*
X99493340Y-54328807D01*
X99459708Y-54309963D01*
X99456662Y-54308749D01*
X99410303Y-54296671D01*
X99347653Y-54288471D01*
X99274219Y-54284311D01*
X99195509Y-54284353D01*
X99117031Y-54288761D01*
X99044292Y-54297697D01*
X99040365Y-54298346D01*
X98991549Y-54306053D01*
X98959297Y-54309665D01*
X98938300Y-54309068D01*
X98923246Y-54304146D01*
X98908826Y-54294788D01*
X98907656Y-54293917D01*
X98883139Y-54263543D01*
X98878346Y-54228042D01*
X98894152Y-54193461D01*
X98898698Y-54189005D01*
X98928312Y-54173865D01*
X98975294Y-54160742D01*
X99035598Y-54149942D01*
X99105180Y-54141773D01*
X99179995Y-54136543D01*
X99255998Y-54134559D01*
X99329145Y-54136128D01*
G37*
X95328847Y-48658078D02*
X95513348Y-48675015D01*
X95684749Y-48709174D01*
X95849427Y-48761991D01*
X96013756Y-48834905D01*
X96176424Y-48928001D01*
X96350999Y-49054914D01*
X96512888Y-49201650D01*
X96658528Y-49364576D01*
X96784352Y-49540059D01*
X96886797Y-49724468D01*
X96896096Y-49744196D01*
X96973973Y-49934613D01*
X97033148Y-50132477D01*
X97074387Y-50341570D01*
X97098452Y-50565670D01*
X97106111Y-50808559D01*
X97096799Y-51059643D01*
X97067244Y-51306912D01*
X97016987Y-51538383D01*
X96945577Y-51755699D01*
X96852566Y-51960502D01*
X96737504Y-52154433D01*
X96629422Y-52302594D01*
X96480184Y-52469300D01*
X96317521Y-52612089D01*
X96141505Y-52730914D01*
X95952207Y-52825729D01*
X95749697Y-52896487D01*
X95534048Y-52943142D01*
X95531587Y-52943505D01*
X95490058Y-52947149D01*
X95427388Y-52949852D01*
X95349373Y-52951487D01*
X95261808Y-52951930D01*
X95170487Y-52951052D01*
X95106484Y-52949767D01*
X95011523Y-52946790D01*
X94935428Y-52942528D01*
X94872712Y-52936526D01*
X94817885Y-52928329D01*
X94765460Y-52917482D01*
X94706477Y-52903465D01*
X94644940Y-52887503D01*
X94589286Y-52870758D01*
X94534463Y-52851268D01*
X94475422Y-52827073D01*
X94407111Y-52796210D01*
X94324478Y-52756719D01*
X94222473Y-52706639D01*
X93940352Y-52567215D01*
X94166313Y-52196067D01*
X94195896Y-52147490D01*
X94249043Y-52060289D01*
X94296614Y-51982331D01*
X94336868Y-51916458D01*
X94368068Y-51865516D01*
X94388476Y-51832347D01*
X94396352Y-51819795D01*
X94398542Y-51820170D01*
X94416188Y-51832454D01*
X94447189Y-51857947D01*
X94486647Y-51892694D01*
X94556920Y-51952729D01*
X94682371Y-52041506D01*
X94804089Y-52103394D01*
X94892045Y-52134300D01*
X95040817Y-52165885D01*
X95186989Y-52171484D01*
X95328443Y-52151477D01*
X95463058Y-52106246D01*
X95588714Y-52036173D01*
X95703293Y-51941639D01*
X95767049Y-51872011D01*
X95856867Y-51743224D01*
X95930567Y-51593773D01*
X95988501Y-51422892D01*
X96031021Y-51229817D01*
X96032951Y-51217831D01*
X96041863Y-51140143D01*
X96048497Y-51043617D01*
X96052800Y-50934849D01*
X96054719Y-50820434D01*
X96054198Y-50706968D01*
X96051185Y-50601046D01*
X96045626Y-50509263D01*
X96037467Y-50438217D01*
X96006194Y-50277280D01*
X95953574Y-50089286D01*
X95887395Y-49924700D01*
X95807747Y-49783649D01*
X95714717Y-49666260D01*
X95608394Y-49572663D01*
X95488867Y-49502982D01*
X95356224Y-49457347D01*
X95326795Y-49451683D01*
X95253044Y-49444288D01*
X95166856Y-49441874D01*
X95077884Y-49444308D01*
X94995786Y-49451460D01*
X94930217Y-49463195D01*
X94820986Y-49500561D01*
X94694227Y-49568778D01*
X94581358Y-49658550D01*
X94561437Y-49677461D01*
X94525340Y-49710918D01*
X94499829Y-49733438D01*
X94489464Y-49740928D01*
X94486913Y-49737346D01*
X94471206Y-49714723D01*
X94442832Y-49673647D01*
X94403664Y-49616836D01*
X94355578Y-49547012D01*
X94300448Y-49466893D01*
X94240149Y-49379201D01*
X93993514Y-49020402D01*
X94048611Y-49003895D01*
X94054360Y-49002024D01*
X94091785Y-48987166D01*
X94145744Y-48963208D01*
X94209902Y-48933031D01*
X94277929Y-48899517D01*
X94307572Y-48884700D01*
X94472176Y-48808201D01*
X94623890Y-48749045D01*
X94768548Y-48705718D01*
X94911986Y-48676707D01*
X95060038Y-48660499D01*
X95218541Y-48655580D01*
X95328847Y-48658078D01*
G36*
X95328847Y-48658078D02*
G01*
X95513348Y-48675015D01*
X95684749Y-48709174D01*
X95849427Y-48761991D01*
X96013756Y-48834905D01*
X96176424Y-48928001D01*
X96350999Y-49054914D01*
X96512888Y-49201650D01*
X96658528Y-49364576D01*
X96784352Y-49540059D01*
X96886797Y-49724468D01*
X96896096Y-49744196D01*
X96973973Y-49934613D01*
X97033148Y-50132477D01*
X97074387Y-50341570D01*
X97098452Y-50565670D01*
X97106111Y-50808559D01*
X97096799Y-51059643D01*
X97067244Y-51306912D01*
X97016987Y-51538383D01*
X96945577Y-51755699D01*
X96852566Y-51960502D01*
X96737504Y-52154433D01*
X96629422Y-52302594D01*
X96480184Y-52469300D01*
X96317521Y-52612089D01*
X96141505Y-52730914D01*
X95952207Y-52825729D01*
X95749697Y-52896487D01*
X95534048Y-52943142D01*
X95531587Y-52943505D01*
X95490058Y-52947149D01*
X95427388Y-52949852D01*
X95349373Y-52951487D01*
X95261808Y-52951930D01*
X95170487Y-52951052D01*
X95106484Y-52949767D01*
X95011523Y-52946790D01*
X94935428Y-52942528D01*
X94872712Y-52936526D01*
X94817885Y-52928329D01*
X94765460Y-52917482D01*
X94706477Y-52903465D01*
X94644940Y-52887503D01*
X94589286Y-52870758D01*
X94534463Y-52851268D01*
X94475422Y-52827073D01*
X94407111Y-52796210D01*
X94324478Y-52756719D01*
X94222473Y-52706639D01*
X93940352Y-52567215D01*
X94166313Y-52196067D01*
X94195896Y-52147490D01*
X94249043Y-52060289D01*
X94296614Y-51982331D01*
X94336868Y-51916458D01*
X94368068Y-51865516D01*
X94388476Y-51832347D01*
X94396352Y-51819795D01*
X94398542Y-51820170D01*
X94416188Y-51832454D01*
X94447189Y-51857947D01*
X94486647Y-51892694D01*
X94556920Y-51952729D01*
X94682371Y-52041506D01*
X94804089Y-52103394D01*
X94892045Y-52134300D01*
X95040817Y-52165885D01*
X95186989Y-52171484D01*
X95328443Y-52151477D01*
X95463058Y-52106246D01*
X95588714Y-52036173D01*
X95703293Y-51941639D01*
X95767049Y-51872011D01*
X95856867Y-51743224D01*
X95930567Y-51593773D01*
X95988501Y-51422892D01*
X96031021Y-51229817D01*
X96032951Y-51217831D01*
X96041863Y-51140143D01*
X96048497Y-51043617D01*
X96052800Y-50934849D01*
X96054719Y-50820434D01*
X96054198Y-50706968D01*
X96051185Y-50601046D01*
X96045626Y-50509263D01*
X96037467Y-50438217D01*
X96006194Y-50277280D01*
X95953574Y-50089286D01*
X95887395Y-49924700D01*
X95807747Y-49783649D01*
X95714717Y-49666260D01*
X95608394Y-49572663D01*
X95488867Y-49502982D01*
X95356224Y-49457347D01*
X95326795Y-49451683D01*
X95253044Y-49444288D01*
X95166856Y-49441874D01*
X95077884Y-49444308D01*
X94995786Y-49451460D01*
X94930217Y-49463195D01*
X94820986Y-49500561D01*
X94694227Y-49568778D01*
X94581358Y-49658550D01*
X94561437Y-49677461D01*
X94525340Y-49710918D01*
X94499829Y-49733438D01*
X94489464Y-49740928D01*
X94486913Y-49737346D01*
X94471206Y-49714723D01*
X94442832Y-49673647D01*
X94403664Y-49616836D01*
X94355578Y-49547012D01*
X94300448Y-49466893D01*
X94240149Y-49379201D01*
X93993514Y-49020402D01*
X94048611Y-49003895D01*
X94054360Y-49002024D01*
X94091785Y-48987166D01*
X94145744Y-48963208D01*
X94209902Y-48933031D01*
X94277929Y-48899517D01*
X94307572Y-48884700D01*
X94472176Y-48808201D01*
X94623890Y-48749045D01*
X94768548Y-48705718D01*
X94911986Y-48676707D01*
X95060038Y-48660499D01*
X95218541Y-48655580D01*
X95328847Y-48658078D01*
G37*
X90843755Y-51519001D02*
X90840842Y-51646057D01*
X90832512Y-51758109D01*
X90818120Y-51861252D01*
X90797021Y-51961581D01*
X90768570Y-52065190D01*
X90725428Y-52189033D01*
X90646190Y-52356216D01*
X90548993Y-52505961D01*
X90435325Y-52636852D01*
X90306672Y-52747474D01*
X90164521Y-52836412D01*
X90010359Y-52902250D01*
X89845674Y-52943574D01*
X89843692Y-52943906D01*
X89723337Y-52955486D01*
X89591099Y-52953941D01*
X89456404Y-52940222D01*
X89328684Y-52915283D01*
X89217366Y-52880077D01*
X89169851Y-52858653D01*
X89107969Y-52826090D01*
X89044380Y-52788846D01*
X88985721Y-52751021D01*
X88938626Y-52716714D01*
X88909730Y-52690024D01*
X88903097Y-52682696D01*
X88895189Y-52680135D01*
X88889903Y-52692851D01*
X88886008Y-52724899D01*
X88882271Y-52780331D01*
X88875406Y-52895838D01*
X88349569Y-52899434D01*
X87823732Y-52903031D01*
X87860116Y-52840946D01*
X87862285Y-52837276D01*
X87872865Y-52820044D01*
X87882463Y-52804693D01*
X87891131Y-52789889D01*
X87898920Y-52774299D01*
X87905882Y-52756589D01*
X87912069Y-52735424D01*
X87917531Y-52709473D01*
X87922322Y-52677400D01*
X87926492Y-52637872D01*
X87930094Y-52589557D01*
X87933178Y-52531119D01*
X87935797Y-52461226D01*
X87938002Y-52378544D01*
X87939844Y-52281739D01*
X87941376Y-52169477D01*
X87942649Y-52040425D01*
X87943715Y-51893250D01*
X87944625Y-51726618D01*
X87945431Y-51539194D01*
X87946185Y-51329646D01*
X87946938Y-51096640D01*
X87947742Y-50838842D01*
X87948451Y-50616982D01*
X88944054Y-50616982D01*
X88944054Y-52044205D01*
X89012703Y-52089233D01*
X89039103Y-52105453D01*
X89099552Y-52137857D01*
X89156865Y-52163661D01*
X89181965Y-52172398D01*
X89261831Y-52189841D01*
X89362811Y-52198748D01*
X89414159Y-52200601D01*
X89461823Y-52200179D01*
X89497304Y-52195419D01*
X89529129Y-52185014D01*
X89565823Y-52167659D01*
X89636342Y-52121169D01*
X89697435Y-52055406D01*
X89746337Y-51970658D01*
X89783515Y-51865597D01*
X89809432Y-51738895D01*
X89824556Y-51589222D01*
X89829350Y-51415252D01*
X89829117Y-51375700D01*
X89822225Y-51192444D01*
X89805488Y-51032985D01*
X89778501Y-50895643D01*
X89740855Y-50778734D01*
X89692144Y-50680577D01*
X89631961Y-50599488D01*
X89606993Y-50574740D01*
X89529613Y-50523181D01*
X89438776Y-50491807D01*
X89338419Y-50480795D01*
X89232475Y-50490324D01*
X89124879Y-50520572D01*
X89019568Y-50571718D01*
X88944054Y-50616982D01*
X87948451Y-50616982D01*
X87948649Y-50554919D01*
X87955514Y-48461135D01*
X88501271Y-48457545D01*
X88540959Y-48457304D01*
X88657730Y-48456825D01*
X88764535Y-48456727D01*
X88858458Y-48456992D01*
X88936584Y-48457599D01*
X88995998Y-48458528D01*
X89033784Y-48459759D01*
X89047027Y-48461272D01*
X89045333Y-48466069D01*
X89032694Y-48488810D01*
X89011760Y-48521881D01*
X89009672Y-48525043D01*
X88993442Y-48550577D01*
X88979833Y-48575421D01*
X88968616Y-48602134D01*
X88959559Y-48633274D01*
X88952431Y-48671402D01*
X88947003Y-48719075D01*
X88943043Y-48778853D01*
X88940320Y-48853295D01*
X88938605Y-48944960D01*
X88937665Y-49056408D01*
X88937270Y-49190196D01*
X88937189Y-49348885D01*
X88937333Y-49472781D01*
X88937774Y-49594419D01*
X88938479Y-49704711D01*
X88939417Y-49800973D01*
X88940557Y-49880519D01*
X88941865Y-49940663D01*
X88943310Y-49978718D01*
X88944859Y-49992000D01*
X88949858Y-49989939D01*
X88971831Y-49975422D01*
X89003211Y-49951581D01*
X89048704Y-49919519D01*
X89134178Y-49872279D01*
X89231872Y-49830140D01*
X89332666Y-49797370D01*
X89417352Y-49780660D01*
X89522823Y-49770009D01*
X89636971Y-49766318D01*
X89750989Y-49769594D01*
X89856067Y-49779840D01*
X89943396Y-49797060D01*
X90032317Y-49826068D01*
X90180658Y-49896389D01*
X90318010Y-49989877D01*
X90441841Y-50104377D01*
X90549615Y-50237739D01*
X90638799Y-50387808D01*
X90660940Y-50433826D01*
X90722987Y-50589048D01*
X90771496Y-50757513D01*
X90807080Y-50942192D01*
X90830353Y-51146053D01*
X90841927Y-51372067D01*
X90842465Y-51415252D01*
X90843755Y-51519001D01*
G36*
X90843755Y-51519001D02*
G01*
X90840842Y-51646057D01*
X90832512Y-51758109D01*
X90818120Y-51861252D01*
X90797021Y-51961581D01*
X90768570Y-52065190D01*
X90725428Y-52189033D01*
X90646190Y-52356216D01*
X90548993Y-52505961D01*
X90435325Y-52636852D01*
X90306672Y-52747474D01*
X90164521Y-52836412D01*
X90010359Y-52902250D01*
X89845674Y-52943574D01*
X89843692Y-52943906D01*
X89723337Y-52955486D01*
X89591099Y-52953941D01*
X89456404Y-52940222D01*
X89328684Y-52915283D01*
X89217366Y-52880077D01*
X89169851Y-52858653D01*
X89107969Y-52826090D01*
X89044380Y-52788846D01*
X88985721Y-52751021D01*
X88938626Y-52716714D01*
X88909730Y-52690024D01*
X88903097Y-52682696D01*
X88895189Y-52680135D01*
X88889903Y-52692851D01*
X88886008Y-52724899D01*
X88882271Y-52780331D01*
X88875406Y-52895838D01*
X88349569Y-52899434D01*
X87823732Y-52903031D01*
X87860116Y-52840946D01*
X87862285Y-52837276D01*
X87872865Y-52820044D01*
X87882463Y-52804693D01*
X87891131Y-52789889D01*
X87898920Y-52774299D01*
X87905882Y-52756589D01*
X87912069Y-52735424D01*
X87917531Y-52709473D01*
X87922322Y-52677400D01*
X87926492Y-52637872D01*
X87930094Y-52589557D01*
X87933178Y-52531119D01*
X87935797Y-52461226D01*
X87938002Y-52378544D01*
X87939844Y-52281739D01*
X87941376Y-52169477D01*
X87942649Y-52040425D01*
X87943715Y-51893250D01*
X87944625Y-51726618D01*
X87945431Y-51539194D01*
X87946185Y-51329646D01*
X87946938Y-51096640D01*
X87947742Y-50838842D01*
X87948451Y-50616982D01*
X88944054Y-50616982D01*
X88944054Y-52044205D01*
X89012703Y-52089233D01*
X89039103Y-52105453D01*
X89099552Y-52137857D01*
X89156865Y-52163661D01*
X89181965Y-52172398D01*
X89261831Y-52189841D01*
X89362811Y-52198748D01*
X89414159Y-52200601D01*
X89461823Y-52200179D01*
X89497304Y-52195419D01*
X89529129Y-52185014D01*
X89565823Y-52167659D01*
X89636342Y-52121169D01*
X89697435Y-52055406D01*
X89746337Y-51970658D01*
X89783515Y-51865597D01*
X89809432Y-51738895D01*
X89824556Y-51589222D01*
X89829350Y-51415252D01*
X89829117Y-51375700D01*
X89822225Y-51192444D01*
X89805488Y-51032985D01*
X89778501Y-50895643D01*
X89740855Y-50778734D01*
X89692144Y-50680577D01*
X89631961Y-50599488D01*
X89606993Y-50574740D01*
X89529613Y-50523181D01*
X89438776Y-50491807D01*
X89338419Y-50480795D01*
X89232475Y-50490324D01*
X89124879Y-50520572D01*
X89019568Y-50571718D01*
X88944054Y-50616982D01*
X87948451Y-50616982D01*
X87948649Y-50554919D01*
X87955514Y-48461135D01*
X88501271Y-48457545D01*
X88540959Y-48457304D01*
X88657730Y-48456825D01*
X88764535Y-48456727D01*
X88858458Y-48456992D01*
X88936584Y-48457599D01*
X88995998Y-48458528D01*
X89033784Y-48459759D01*
X89047027Y-48461272D01*
X89045333Y-48466069D01*
X89032694Y-48488810D01*
X89011760Y-48521881D01*
X89009672Y-48525043D01*
X88993442Y-48550577D01*
X88979833Y-48575421D01*
X88968616Y-48602134D01*
X88959559Y-48633274D01*
X88952431Y-48671402D01*
X88947003Y-48719075D01*
X88943043Y-48778853D01*
X88940320Y-48853295D01*
X88938605Y-48944960D01*
X88937665Y-49056408D01*
X88937270Y-49190196D01*
X88937189Y-49348885D01*
X88937333Y-49472781D01*
X88937774Y-49594419D01*
X88938479Y-49704711D01*
X88939417Y-49800973D01*
X88940557Y-49880519D01*
X88941865Y-49940663D01*
X88943310Y-49978718D01*
X88944859Y-49992000D01*
X88949858Y-49989939D01*
X88971831Y-49975422D01*
X89003211Y-49951581D01*
X89048704Y-49919519D01*
X89134178Y-49872279D01*
X89231872Y-49830140D01*
X89332666Y-49797370D01*
X89417352Y-49780660D01*
X89522823Y-49770009D01*
X89636971Y-49766318D01*
X89750989Y-49769594D01*
X89856067Y-49779840D01*
X89943396Y-49797060D01*
X90032317Y-49826068D01*
X90180658Y-49896389D01*
X90318010Y-49989877D01*
X90441841Y-50104377D01*
X90549615Y-50237739D01*
X90638799Y-50387808D01*
X90660940Y-50433826D01*
X90722987Y-50589048D01*
X90771496Y-50757513D01*
X90807080Y-50942192D01*
X90830353Y-51146053D01*
X90841927Y-51372067D01*
X90842465Y-51415252D01*
X90843755Y-51519001D01*
G37*
X93947128Y-51951034D02*
X93940962Y-52061736D01*
X93927635Y-52164739D01*
X93907526Y-52250541D01*
X93875440Y-52338818D01*
X93801063Y-52484299D01*
X93705994Y-52612295D01*
X93591218Y-52721933D01*
X93457719Y-52812342D01*
X93306480Y-52882648D01*
X93138487Y-52931981D01*
X93069983Y-52943108D01*
X92972093Y-52950841D01*
X92865484Y-52952580D01*
X92759065Y-52948465D01*
X92661745Y-52938637D01*
X92582433Y-52923236D01*
X92542579Y-52911110D01*
X92452063Y-52875626D01*
X92360052Y-52830575D01*
X92276038Y-52780843D01*
X92209515Y-52731316D01*
X92208697Y-52730601D01*
X92172243Y-52699692D01*
X92144196Y-52677683D01*
X92130569Y-52669298D01*
X92129079Y-52671300D01*
X92125708Y-52692926D01*
X92123365Y-52733260D01*
X92122487Y-52786000D01*
X92122487Y-52902703D01*
X91607622Y-52902703D01*
X91593916Y-52902701D01*
X91478965Y-52902500D01*
X91373464Y-52901999D01*
X91280414Y-52901237D01*
X91202817Y-52900249D01*
X91143674Y-52899074D01*
X91105986Y-52897749D01*
X91092757Y-52896311D01*
X91093065Y-52895054D01*
X91101720Y-52876501D01*
X91119863Y-52841645D01*
X91144244Y-52796770D01*
X91195730Y-52703622D01*
X91203279Y-51783981D01*
X92177406Y-51783981D01*
X92177789Y-51856640D01*
X92179644Y-51932985D01*
X92183279Y-51988168D01*
X92188958Y-52025782D01*
X92196946Y-52049421D01*
X92207222Y-52066301D01*
X92245918Y-52112317D01*
X92297765Y-52160221D01*
X92354592Y-52202904D01*
X92408225Y-52233253D01*
X92437982Y-52244389D01*
X92506499Y-52259216D01*
X92595988Y-52266796D01*
X92690338Y-52265648D01*
X92779934Y-52250056D01*
X92854718Y-52217846D01*
X92919421Y-52167567D01*
X92937622Y-52148970D01*
X92985011Y-52085546D01*
X93010652Y-52017184D01*
X93018352Y-51934925D01*
X93016266Y-51891467D01*
X92995635Y-51802005D01*
X92952295Y-51725219D01*
X92885457Y-51660243D01*
X92794331Y-51606215D01*
X92678128Y-51562270D01*
X92631281Y-51550738D01*
X92574568Y-51542842D01*
X92503195Y-51538457D01*
X92410811Y-51536982D01*
X92395804Y-51536983D01*
X92326689Y-51537827D01*
X92267320Y-51539866D01*
X92223600Y-51542833D01*
X92201433Y-51546461D01*
X92198882Y-51547639D01*
X92190635Y-51555035D01*
X92184794Y-51569899D01*
X92180955Y-51596227D01*
X92178713Y-51638018D01*
X92177665Y-51699270D01*
X92177406Y-51783981D01*
X91203279Y-51783981D01*
X91203676Y-51735676D01*
X91204857Y-51594695D01*
X91206509Y-51414893D01*
X91208243Y-51258799D01*
X91210200Y-51124205D01*
X91212519Y-51008905D01*
X91215340Y-50910689D01*
X91218804Y-50827352D01*
X91223050Y-50756685D01*
X91228220Y-50696480D01*
X91234452Y-50644531D01*
X91241887Y-50598630D01*
X91250666Y-50556569D01*
X91260927Y-50516141D01*
X91272813Y-50475137D01*
X91286461Y-50431352D01*
X91340230Y-50294085D01*
X91413865Y-50167222D01*
X91505566Y-50058608D01*
X91616175Y-49967674D01*
X91746530Y-49893853D01*
X91897471Y-49836575D01*
X92069837Y-49795273D01*
X92264469Y-49769378D01*
X92332495Y-49764229D01*
X92447062Y-49760464D01*
X92560616Y-49763854D01*
X92678473Y-49774972D01*
X92805950Y-49794388D01*
X92948363Y-49822674D01*
X93111027Y-49860403D01*
X93148627Y-49869532D01*
X93243049Y-49891996D01*
X93332543Y-49912679D01*
X93411681Y-49930361D01*
X93475036Y-49943820D01*
X93517180Y-49951833D01*
X93614414Y-49967803D01*
X93477716Y-50299118D01*
X93443523Y-50381840D01*
X93409885Y-50462896D01*
X93381023Y-50532101D01*
X93358355Y-50586068D01*
X93343297Y-50621412D01*
X93337267Y-50634746D01*
X93336319Y-50634937D01*
X93318844Y-50628984D01*
X93284483Y-50613728D01*
X93239434Y-50591883D01*
X93145802Y-50549343D01*
X93016958Y-50502830D01*
X92885086Y-50467210D01*
X92755344Y-50443378D01*
X92632889Y-50432227D01*
X92522877Y-50434654D01*
X92430465Y-50451552D01*
X92365969Y-50478364D01*
X92292720Y-50533310D01*
X92236333Y-50607852D01*
X92198421Y-50699695D01*
X92180599Y-50806547D01*
X92174323Y-50905027D01*
X92501945Y-50905924D01*
X92612432Y-50906851D01*
X92734638Y-50910141D01*
X92839035Y-50916351D01*
X92931024Y-50926084D01*
X93016004Y-50939943D01*
X93099377Y-50958533D01*
X93186541Y-50982458D01*
X93316960Y-51027996D01*
X93470360Y-51102988D01*
X93604988Y-51194847D01*
X93719516Y-51302280D01*
X93812616Y-51423995D01*
X93882961Y-51558701D01*
X93929223Y-51705105D01*
X93936468Y-51744536D01*
X93945756Y-51842133D01*
X93946926Y-51934925D01*
X93947128Y-51951034D01*
G36*
X93947128Y-51951034D02*
G01*
X93940962Y-52061736D01*
X93927635Y-52164739D01*
X93907526Y-52250541D01*
X93875440Y-52338818D01*
X93801063Y-52484299D01*
X93705994Y-52612295D01*
X93591218Y-52721933D01*
X93457719Y-52812342D01*
X93306480Y-52882648D01*
X93138487Y-52931981D01*
X93069983Y-52943108D01*
X92972093Y-52950841D01*
X92865484Y-52952580D01*
X92759065Y-52948465D01*
X92661745Y-52938637D01*
X92582433Y-52923236D01*
X92542579Y-52911110D01*
X92452063Y-52875626D01*
X92360052Y-52830575D01*
X92276038Y-52780843D01*
X92209515Y-52731316D01*
X92208697Y-52730601D01*
X92172243Y-52699692D01*
X92144196Y-52677683D01*
X92130569Y-52669298D01*
X92129079Y-52671300D01*
X92125708Y-52692926D01*
X92123365Y-52733260D01*
X92122487Y-52786000D01*
X92122487Y-52902703D01*
X91607622Y-52902703D01*
X91593916Y-52902701D01*
X91478965Y-52902500D01*
X91373464Y-52901999D01*
X91280414Y-52901237D01*
X91202817Y-52900249D01*
X91143674Y-52899074D01*
X91105986Y-52897749D01*
X91092757Y-52896311D01*
X91093065Y-52895054D01*
X91101720Y-52876501D01*
X91119863Y-52841645D01*
X91144244Y-52796770D01*
X91195730Y-52703622D01*
X91203279Y-51783981D01*
X92177406Y-51783981D01*
X92177789Y-51856640D01*
X92179644Y-51932985D01*
X92183279Y-51988168D01*
X92188958Y-52025782D01*
X92196946Y-52049421D01*
X92207222Y-52066301D01*
X92245918Y-52112317D01*
X92297765Y-52160221D01*
X92354592Y-52202904D01*
X92408225Y-52233253D01*
X92437982Y-52244389D01*
X92506499Y-52259216D01*
X92595988Y-52266796D01*
X92690338Y-52265648D01*
X92779934Y-52250056D01*
X92854718Y-52217846D01*
X92919421Y-52167567D01*
X92937622Y-52148970D01*
X92985011Y-52085546D01*
X93010652Y-52017184D01*
X93018352Y-51934925D01*
X93016266Y-51891467D01*
X92995635Y-51802005D01*
X92952295Y-51725219D01*
X92885457Y-51660243D01*
X92794331Y-51606215D01*
X92678128Y-51562270D01*
X92631281Y-51550738D01*
X92574568Y-51542842D01*
X92503195Y-51538457D01*
X92410811Y-51536982D01*
X92395804Y-51536983D01*
X92326689Y-51537827D01*
X92267320Y-51539866D01*
X92223600Y-51542833D01*
X92201433Y-51546461D01*
X92198882Y-51547639D01*
X92190635Y-51555035D01*
X92184794Y-51569899D01*
X92180955Y-51596227D01*
X92178713Y-51638018D01*
X92177665Y-51699270D01*
X92177406Y-51783981D01*
X91203279Y-51783981D01*
X91203676Y-51735676D01*
X91204857Y-51594695D01*
X91206509Y-51414893D01*
X91208243Y-51258799D01*
X91210200Y-51124205D01*
X91212519Y-51008905D01*
X91215340Y-50910689D01*
X91218804Y-50827352D01*
X91223050Y-50756685D01*
X91228220Y-50696480D01*
X91234452Y-50644531D01*
X91241887Y-50598630D01*
X91250666Y-50556569D01*
X91260927Y-50516141D01*
X91272813Y-50475137D01*
X91286461Y-50431352D01*
X91340230Y-50294085D01*
X91413865Y-50167222D01*
X91505566Y-50058608D01*
X91616175Y-49967674D01*
X91746530Y-49893853D01*
X91897471Y-49836575D01*
X92069837Y-49795273D01*
X92264469Y-49769378D01*
X92332495Y-49764229D01*
X92447062Y-49760464D01*
X92560616Y-49763854D01*
X92678473Y-49774972D01*
X92805950Y-49794388D01*
X92948363Y-49822674D01*
X93111027Y-49860403D01*
X93148627Y-49869532D01*
X93243049Y-49891996D01*
X93332543Y-49912679D01*
X93411681Y-49930361D01*
X93475036Y-49943820D01*
X93517180Y-49951833D01*
X93614414Y-49967803D01*
X93477716Y-50299118D01*
X93443523Y-50381840D01*
X93409885Y-50462896D01*
X93381023Y-50532101D01*
X93358355Y-50586068D01*
X93343297Y-50621412D01*
X93337267Y-50634746D01*
X93336319Y-50634937D01*
X93318844Y-50628984D01*
X93284483Y-50613728D01*
X93239434Y-50591883D01*
X93145802Y-50549343D01*
X93016958Y-50502830D01*
X92885086Y-50467210D01*
X92755344Y-50443378D01*
X92632889Y-50432227D01*
X92522877Y-50434654D01*
X92430465Y-50451552D01*
X92365969Y-50478364D01*
X92292720Y-50533310D01*
X92236333Y-50607852D01*
X92198421Y-50699695D01*
X92180599Y-50806547D01*
X92174323Y-50905027D01*
X92501945Y-50905924D01*
X92612432Y-50906851D01*
X92734638Y-50910141D01*
X92839035Y-50916351D01*
X92931024Y-50926084D01*
X93016004Y-50939943D01*
X93099377Y-50958533D01*
X93186541Y-50982458D01*
X93316960Y-51027996D01*
X93470360Y-51102988D01*
X93604988Y-51194847D01*
X93719516Y-51302280D01*
X93812616Y-51423995D01*
X93882961Y-51558701D01*
X93929223Y-51705105D01*
X93936468Y-51744536D01*
X93945756Y-51842133D01*
X93946926Y-51934925D01*
X93947128Y-51951034D01*
G37*
X103157945Y-52929840D02*
X103156532Y-53036310D01*
X103154777Y-53128024D01*
X103152646Y-53206117D01*
X103150102Y-53271724D01*
X103147111Y-53325981D01*
X103143635Y-53370023D01*
X103139640Y-53404985D01*
X103135089Y-53432003D01*
X103129947Y-53452212D01*
X103124179Y-53466747D01*
X103117748Y-53476744D01*
X103110619Y-53483338D01*
X103102755Y-53487665D01*
X103094122Y-53490859D01*
X103084684Y-53494056D01*
X103074404Y-53498391D01*
X103068620Y-53500563D01*
X103058010Y-53502936D01*
X103042245Y-53505110D01*
X103020210Y-53507093D01*
X102990790Y-53508896D01*
X102952869Y-53510525D01*
X102905332Y-53511991D01*
X102847064Y-53513301D01*
X102776950Y-53514465D01*
X102693874Y-53515491D01*
X102596721Y-53516388D01*
X102484376Y-53517165D01*
X102355725Y-53517830D01*
X102209650Y-53518392D01*
X102045038Y-53518860D01*
X101860773Y-53519242D01*
X101655740Y-53519548D01*
X101428824Y-53519785D01*
X101178909Y-53519963D01*
X100904881Y-53520091D01*
X100605623Y-53520176D01*
X100280021Y-53520228D01*
X100176839Y-53520238D01*
X99858303Y-53520245D01*
X99565787Y-53520205D01*
X99298188Y-53520110D01*
X99054404Y-53519953D01*
X98833332Y-53519725D01*
X98633872Y-53519419D01*
X98454921Y-53519025D01*
X98295376Y-53518538D01*
X98154136Y-53517947D01*
X98030099Y-53517247D01*
X97922163Y-53516427D01*
X97829226Y-53515481D01*
X97750185Y-53514400D01*
X97683939Y-53513177D01*
X97629385Y-53511803D01*
X97585422Y-53510271D01*
X97550947Y-53508572D01*
X97524859Y-53506698D01*
X97506056Y-53504642D01*
X97493435Y-53502396D01*
X97485894Y-53499950D01*
X97483495Y-53498862D01*
X97473673Y-53495287D01*
X97464666Y-53492676D01*
X97456437Y-53489893D01*
X97448950Y-53485800D01*
X97442168Y-53479260D01*
X97436055Y-53469137D01*
X97430575Y-53454293D01*
X97425690Y-53433591D01*
X97421364Y-53405895D01*
X97417561Y-53370068D01*
X97414244Y-53324973D01*
X97411376Y-53269472D01*
X97408922Y-53202429D01*
X97406844Y-53122707D01*
X97405107Y-53029170D01*
X97403673Y-52920679D01*
X97403202Y-52870440D01*
X97765255Y-52870440D01*
X97765652Y-52875251D01*
X97772935Y-52879150D01*
X97789389Y-52882232D01*
X97817301Y-52884594D01*
X97858957Y-52886330D01*
X97916642Y-52887536D01*
X97992642Y-52888308D01*
X98089244Y-52888741D01*
X98208734Y-52888931D01*
X98353396Y-52888973D01*
X98959373Y-52888973D01*
X98908146Y-52796298D01*
X98856919Y-52703622D01*
X98856919Y-50012595D01*
X98908146Y-49919919D01*
X98959373Y-49827244D01*
X97876211Y-49827244D01*
X97868379Y-52676162D01*
X97829981Y-52758168D01*
X97809736Y-52798815D01*
X97786813Y-52839532D01*
X97769501Y-52864574D01*
X97769458Y-52864622D01*
X97765255Y-52870440D01*
X97403202Y-52870440D01*
X97402506Y-52796098D01*
X97401570Y-52654290D01*
X97400828Y-52494119D01*
X97400243Y-52314447D01*
X97399779Y-52114137D01*
X97399400Y-51892052D01*
X97399069Y-51647056D01*
X97398749Y-51378012D01*
X97398404Y-51083782D01*
X97397998Y-50763230D01*
X97397945Y-50724424D01*
X97397492Y-50405903D01*
X97397059Y-50113572D01*
X97396677Y-49846293D01*
X97396380Y-49602929D01*
X97396198Y-49382342D01*
X97396165Y-49183395D01*
X97396311Y-49004950D01*
X97396670Y-48845871D01*
X97397274Y-48705019D01*
X97398154Y-48581257D01*
X97399342Y-48473447D01*
X97400871Y-48380453D01*
X97402772Y-48301137D01*
X97405078Y-48234360D01*
X97407821Y-48178987D01*
X97411032Y-48133879D01*
X97414745Y-48097899D01*
X97418990Y-48069909D01*
X97423801Y-48048772D01*
X97429208Y-48033351D01*
X97435245Y-48022508D01*
X97441943Y-48015106D01*
X97449335Y-48010007D01*
X97457451Y-48006073D01*
X97466325Y-48002168D01*
X97475989Y-47997154D01*
X97478817Y-47995556D01*
X97521604Y-47980089D01*
X97568443Y-47973732D01*
X97621244Y-47973734D01*
X97622124Y-48093867D01*
X97622347Y-48107692D01*
X97639129Y-48248215D01*
X97681873Y-48380435D01*
X97749983Y-48502952D01*
X97842868Y-48614363D01*
X97892712Y-48659803D01*
X98003695Y-48735120D01*
X98124788Y-48787643D01*
X98252465Y-48817342D01*
X98383197Y-48824190D01*
X98513460Y-48808159D01*
X98639725Y-48769221D01*
X98743522Y-48715135D01*
X99202907Y-48715135D01*
X99263319Y-48758599D01*
X99314410Y-48799448D01*
X99386403Y-48866076D01*
X99468060Y-48949580D01*
X99556290Y-49046778D01*
X99648000Y-49154487D01*
X99671617Y-49183290D01*
X99711827Y-49232692D01*
X99764387Y-49297505D01*
X99827556Y-49375566D01*
X99899592Y-49464711D01*
X99978754Y-49562778D01*
X100063302Y-49667604D01*
X100151493Y-49777024D01*
X100191944Y-49827244D01*
X100241586Y-49888876D01*
X100331840Y-50000997D01*
X100420515Y-50111224D01*
X100505868Y-50217392D01*
X100586158Y-50317340D01*
X100659644Y-50408903D01*
X100724585Y-50489919D01*
X100779240Y-50558224D01*
X100821866Y-50611655D01*
X100850724Y-50648048D01*
X100864071Y-50665242D01*
X100865173Y-50671703D01*
X100861508Y-50683992D01*
X100852013Y-50703325D01*
X100835738Y-50731074D01*
X100811736Y-50768610D01*
X100779060Y-50817304D01*
X100736761Y-50878529D01*
X100683891Y-50953654D01*
X100619503Y-51044052D01*
X100542648Y-51151094D01*
X100452380Y-51276152D01*
X100347749Y-51420596D01*
X100227809Y-51585798D01*
X100132242Y-51717297D01*
X100015648Y-51877605D01*
X99913088Y-52018387D01*
X99823369Y-52141204D01*
X99745300Y-52247619D01*
X99677688Y-52339195D01*
X99619338Y-52417494D01*
X99569060Y-52484079D01*
X99525661Y-52540511D01*
X99487946Y-52588354D01*
X99454725Y-52629169D01*
X99424803Y-52664520D01*
X99396989Y-52695968D01*
X99370090Y-52725076D01*
X99342913Y-52753406D01*
X99314265Y-52782522D01*
X99208692Y-52888973D01*
X100628054Y-52889031D01*
X100623595Y-52803019D01*
X100623379Y-52798697D01*
X100622532Y-52764313D01*
X100624137Y-52731368D01*
X100629266Y-52698058D01*
X100638993Y-52662578D01*
X100654391Y-52623125D01*
X100676534Y-52577893D01*
X100706495Y-52525077D01*
X100745348Y-52462874D01*
X100794166Y-52389477D01*
X100854022Y-52303084D01*
X100925990Y-52201890D01*
X101011143Y-52084088D01*
X101110554Y-51947876D01*
X101225298Y-51791449D01*
X101630325Y-51240041D01*
X101633893Y-51879382D01*
X101634209Y-51939020D01*
X101634767Y-52099657D01*
X101634513Y-52236289D01*
X101633150Y-52351502D01*
X101630377Y-52447883D01*
X101625898Y-52528016D01*
X101619413Y-52594487D01*
X101610623Y-52649883D01*
X101599230Y-52696788D01*
X101584935Y-52737788D01*
X101567440Y-52775469D01*
X101546447Y-52812417D01*
X101521655Y-52851217D01*
X101496734Y-52888973D01*
X102791884Y-52888973D01*
X102758429Y-52844352D01*
X102753190Y-52837293D01*
X102711302Y-52772594D01*
X102682427Y-52707190D01*
X102663466Y-52632248D01*
X102651321Y-52538933D01*
X102650987Y-52534865D01*
X102649225Y-52496375D01*
X102647633Y-52432156D01*
X102646220Y-52343676D01*
X102644992Y-52232403D01*
X102643956Y-52099803D01*
X102643118Y-51947345D01*
X102642486Y-51776496D01*
X102642067Y-51588722D01*
X102641868Y-51385493D01*
X102641895Y-51168274D01*
X102642155Y-50938535D01*
X102642655Y-50697741D01*
X102643185Y-50481748D01*
X102643752Y-50246635D01*
X102644311Y-50036279D01*
X102644930Y-49849206D01*
X102645681Y-49683942D01*
X102646634Y-49539013D01*
X102647858Y-49412947D01*
X102649423Y-49304268D01*
X102651401Y-49211504D01*
X102653860Y-49133180D01*
X102656871Y-49067822D01*
X102660504Y-49013958D01*
X102664829Y-48970113D01*
X102669916Y-48934813D01*
X102675835Y-48906585D01*
X102682657Y-48883955D01*
X102690451Y-48865449D01*
X102699288Y-48849594D01*
X102709237Y-48834915D01*
X102720369Y-48819940D01*
X102732754Y-48803193D01*
X102744732Y-48786412D01*
X102767885Y-48753231D01*
X102781753Y-48732298D01*
X102782088Y-48731421D01*
X102777246Y-48727462D01*
X102760157Y-48724159D01*
X102728921Y-48721461D01*
X102681635Y-48719317D01*
X102616398Y-48717676D01*
X102531310Y-48716489D01*
X102424467Y-48715703D01*
X102293969Y-48715269D01*
X102137914Y-48715135D01*
X101483722Y-48715135D01*
X101518200Y-48756110D01*
X101538182Y-48784253D01*
X101571443Y-48850608D01*
X101600591Y-48933135D01*
X101622838Y-49024679D01*
X101624256Y-49033369D01*
X101628474Y-49079183D01*
X101631669Y-49149989D01*
X101633849Y-49246275D01*
X101635021Y-49368532D01*
X101635195Y-49517251D01*
X101634378Y-49692922D01*
X101630325Y-50279412D01*
X101211568Y-49749859D01*
X101199574Y-49734690D01*
X101093381Y-49600255D01*
X101002721Y-49485124D01*
X100926151Y-49387339D01*
X100862227Y-49304943D01*
X100809507Y-49235978D01*
X100766549Y-49178486D01*
X100731909Y-49130510D01*
X100704145Y-49090093D01*
X100681814Y-49055276D01*
X100663472Y-49024103D01*
X100647678Y-48994615D01*
X100632988Y-48964855D01*
X100610390Y-48912177D01*
X100595791Y-48856606D01*
X100591908Y-48796666D01*
X100592298Y-48715135D01*
X99202907Y-48715135D01*
X98743522Y-48715135D01*
X98758466Y-48707348D01*
X98866157Y-48622511D01*
X98896094Y-48592602D01*
X98984577Y-48481862D01*
X99047364Y-48361684D01*
X99084789Y-48231291D01*
X99097189Y-48089910D01*
X99097189Y-47973730D01*
X101068088Y-47973730D01*
X101191220Y-47973725D01*
X101455743Y-47973689D01*
X101694702Y-47973663D01*
X101909418Y-47973699D01*
X102101213Y-47973849D01*
X102271407Y-47974166D01*
X102421323Y-47974702D01*
X102552282Y-47975508D01*
X102665605Y-47976638D01*
X102762614Y-47978144D01*
X102844629Y-47980077D01*
X102912974Y-47982491D01*
X102968968Y-47985436D01*
X103013933Y-47988966D01*
X103049191Y-47993133D01*
X103076063Y-47997989D01*
X103095871Y-48003586D01*
X103109935Y-48009976D01*
X103119578Y-48017212D01*
X103126121Y-48025346D01*
X103130885Y-48034431D01*
X103135192Y-48044518D01*
X103140363Y-48055659D01*
X103140455Y-48055841D01*
X103142966Y-48063134D01*
X103145268Y-48075347D01*
X103147372Y-48093605D01*
X103149286Y-48119037D01*
X103151018Y-48152769D01*
X103152578Y-48195928D01*
X103153973Y-48249641D01*
X103155213Y-48315035D01*
X103156307Y-48393238D01*
X103157263Y-48485376D01*
X103158090Y-48592576D01*
X103158797Y-48715966D01*
X103159393Y-48856671D01*
X103159885Y-49015820D01*
X103160284Y-49194540D01*
X103160597Y-49393957D01*
X103160833Y-49615198D01*
X103161002Y-49859390D01*
X103161112Y-50127661D01*
X103161172Y-50421137D01*
X103161189Y-50740946D01*
X103161190Y-50803773D01*
X103161220Y-51120249D01*
X103161267Y-51410615D01*
X103161295Y-51676007D01*
X103161267Y-51917560D01*
X103161150Y-52136410D01*
X103160905Y-52333691D01*
X103160498Y-52510539D01*
X103159893Y-52668090D01*
X103159054Y-52807479D01*
X103158315Y-52888973D01*
X103157945Y-52929840D01*
G36*
X103157945Y-52929840D02*
G01*
X103156532Y-53036310D01*
X103154777Y-53128024D01*
X103152646Y-53206117D01*
X103150102Y-53271724D01*
X103147111Y-53325981D01*
X103143635Y-53370023D01*
X103139640Y-53404985D01*
X103135089Y-53432003D01*
X103129947Y-53452212D01*
X103124179Y-53466747D01*
X103117748Y-53476744D01*
X103110619Y-53483338D01*
X103102755Y-53487665D01*
X103094122Y-53490859D01*
X103084684Y-53494056D01*
X103074404Y-53498391D01*
X103068620Y-53500563D01*
X103058010Y-53502936D01*
X103042245Y-53505110D01*
X103020210Y-53507093D01*
X102990790Y-53508896D01*
X102952869Y-53510525D01*
X102905332Y-53511991D01*
X102847064Y-53513301D01*
X102776950Y-53514465D01*
X102693874Y-53515491D01*
X102596721Y-53516388D01*
X102484376Y-53517165D01*
X102355725Y-53517830D01*
X102209650Y-53518392D01*
X102045038Y-53518860D01*
X101860773Y-53519242D01*
X101655740Y-53519548D01*
X101428824Y-53519785D01*
X101178909Y-53519963D01*
X100904881Y-53520091D01*
X100605623Y-53520176D01*
X100280021Y-53520228D01*
X100176839Y-53520238D01*
X99858303Y-53520245D01*
X99565787Y-53520205D01*
X99298188Y-53520110D01*
X99054404Y-53519953D01*
X98833332Y-53519725D01*
X98633872Y-53519419D01*
X98454921Y-53519025D01*
X98295376Y-53518538D01*
X98154136Y-53517947D01*
X98030099Y-53517247D01*
X97922163Y-53516427D01*
X97829226Y-53515481D01*
X97750185Y-53514400D01*
X97683939Y-53513177D01*
X97629385Y-53511803D01*
X97585422Y-53510271D01*
X97550947Y-53508572D01*
X97524859Y-53506698D01*
X97506056Y-53504642D01*
X97493435Y-53502396D01*
X97485894Y-53499950D01*
X97483495Y-53498862D01*
X97473673Y-53495287D01*
X97464666Y-53492676D01*
X97456437Y-53489893D01*
X97448950Y-53485800D01*
X97442168Y-53479260D01*
X97436055Y-53469137D01*
X97430575Y-53454293D01*
X97425690Y-53433591D01*
X97421364Y-53405895D01*
X97417561Y-53370068D01*
X97414244Y-53324973D01*
X97411376Y-53269472D01*
X97408922Y-53202429D01*
X97406844Y-53122707D01*
X97405107Y-53029170D01*
X97403673Y-52920679D01*
X97403202Y-52870440D01*
X97765255Y-52870440D01*
X97765652Y-52875251D01*
X97772935Y-52879150D01*
X97789389Y-52882232D01*
X97817301Y-52884594D01*
X97858957Y-52886330D01*
X97916642Y-52887536D01*
X97992642Y-52888308D01*
X98089244Y-52888741D01*
X98208734Y-52888931D01*
X98353396Y-52888973D01*
X98959373Y-52888973D01*
X98908146Y-52796298D01*
X98856919Y-52703622D01*
X98856919Y-50012595D01*
X98908146Y-49919919D01*
X98959373Y-49827244D01*
X97876211Y-49827244D01*
X97868379Y-52676162D01*
X97829981Y-52758168D01*
X97809736Y-52798815D01*
X97786813Y-52839532D01*
X97769501Y-52864574D01*
X97769458Y-52864622D01*
X97765255Y-52870440D01*
X97403202Y-52870440D01*
X97402506Y-52796098D01*
X97401570Y-52654290D01*
X97400828Y-52494119D01*
X97400243Y-52314447D01*
X97399779Y-52114137D01*
X97399400Y-51892052D01*
X97399069Y-51647056D01*
X97398749Y-51378012D01*
X97398404Y-51083782D01*
X97397998Y-50763230D01*
X97397945Y-50724424D01*
X97397492Y-50405903D01*
X97397059Y-50113572D01*
X97396677Y-49846293D01*
X97396380Y-49602929D01*
X97396198Y-49382342D01*
X97396165Y-49183395D01*
X97396311Y-49004950D01*
X97396670Y-48845871D01*
X97397274Y-48705019D01*
X97398154Y-48581257D01*
X97399342Y-48473447D01*
X97400871Y-48380453D01*
X97402772Y-48301137D01*
X97405078Y-48234360D01*
X97407821Y-48178987D01*
X97411032Y-48133879D01*
X97414745Y-48097899D01*
X97418990Y-48069909D01*
X97423801Y-48048772D01*
X97429208Y-48033351D01*
X97435245Y-48022508D01*
X97441943Y-48015106D01*
X97449335Y-48010007D01*
X97457451Y-48006073D01*
X97466325Y-48002168D01*
X97475989Y-47997154D01*
X97478817Y-47995556D01*
X97521604Y-47980089D01*
X97568443Y-47973732D01*
X97621244Y-47973734D01*
X97622124Y-48093867D01*
X97622347Y-48107692D01*
X97639129Y-48248215D01*
X97681873Y-48380435D01*
X97749983Y-48502952D01*
X97842868Y-48614363D01*
X97892712Y-48659803D01*
X98003695Y-48735120D01*
X98124788Y-48787643D01*
X98252465Y-48817342D01*
X98383197Y-48824190D01*
X98513460Y-48808159D01*
X98639725Y-48769221D01*
X98743522Y-48715135D01*
X99202907Y-48715135D01*
X99263319Y-48758599D01*
X99314410Y-48799448D01*
X99386403Y-48866076D01*
X99468060Y-48949580D01*
X99556290Y-49046778D01*
X99648000Y-49154487D01*
X99671617Y-49183290D01*
X99711827Y-49232692D01*
X99764387Y-49297505D01*
X99827556Y-49375566D01*
X99899592Y-49464711D01*
X99978754Y-49562778D01*
X100063302Y-49667604D01*
X100151493Y-49777024D01*
X100191944Y-49827244D01*
X100241586Y-49888876D01*
X100331840Y-50000997D01*
X100420515Y-50111224D01*
X100505868Y-50217392D01*
X100586158Y-50317340D01*
X100659644Y-50408903D01*
X100724585Y-50489919D01*
X100779240Y-50558224D01*
X100821866Y-50611655D01*
X100850724Y-50648048D01*
X100864071Y-50665242D01*
X100865173Y-50671703D01*
X100861508Y-50683992D01*
X100852013Y-50703325D01*
X100835738Y-50731074D01*
X100811736Y-50768610D01*
X100779060Y-50817304D01*
X100736761Y-50878529D01*
X100683891Y-50953654D01*
X100619503Y-51044052D01*
X100542648Y-51151094D01*
X100452380Y-51276152D01*
X100347749Y-51420596D01*
X100227809Y-51585798D01*
X100132242Y-51717297D01*
X100015648Y-51877605D01*
X99913088Y-52018387D01*
X99823369Y-52141204D01*
X99745300Y-52247619D01*
X99677688Y-52339195D01*
X99619338Y-52417494D01*
X99569060Y-52484079D01*
X99525661Y-52540511D01*
X99487946Y-52588354D01*
X99454725Y-52629169D01*
X99424803Y-52664520D01*
X99396989Y-52695968D01*
X99370090Y-52725076D01*
X99342913Y-52753406D01*
X99314265Y-52782522D01*
X99208692Y-52888973D01*
X100628054Y-52889031D01*
X100623595Y-52803019D01*
X100623379Y-52798697D01*
X100622532Y-52764313D01*
X100624137Y-52731368D01*
X100629266Y-52698058D01*
X100638993Y-52662578D01*
X100654391Y-52623125D01*
X100676534Y-52577893D01*
X100706495Y-52525077D01*
X100745348Y-52462874D01*
X100794166Y-52389477D01*
X100854022Y-52303084D01*
X100925990Y-52201890D01*
X101011143Y-52084088D01*
X101110554Y-51947876D01*
X101225298Y-51791449D01*
X101630325Y-51240041D01*
X101633893Y-51879382D01*
X101634209Y-51939020D01*
X101634767Y-52099657D01*
X101634513Y-52236289D01*
X101633150Y-52351502D01*
X101630377Y-52447883D01*
X101625898Y-52528016D01*
X101619413Y-52594487D01*
X101610623Y-52649883D01*
X101599230Y-52696788D01*
X101584935Y-52737788D01*
X101567440Y-52775469D01*
X101546447Y-52812417D01*
X101521655Y-52851217D01*
X101496734Y-52888973D01*
X102791884Y-52888973D01*
X102758429Y-52844352D01*
X102753190Y-52837293D01*
X102711302Y-52772594D01*
X102682427Y-52707190D01*
X102663466Y-52632248D01*
X102651321Y-52538933D01*
X102650987Y-52534865D01*
X102649225Y-52496375D01*
X102647633Y-52432156D01*
X102646220Y-52343676D01*
X102644992Y-52232403D01*
X102643956Y-52099803D01*
X102643118Y-51947345D01*
X102642486Y-51776496D01*
X102642067Y-51588722D01*
X102641868Y-51385493D01*
X102641895Y-51168274D01*
X102642155Y-50938535D01*
X102642655Y-50697741D01*
X102643185Y-50481748D01*
X102643752Y-50246635D01*
X102644311Y-50036279D01*
X102644930Y-49849206D01*
X102645681Y-49683942D01*
X102646634Y-49539013D01*
X102647858Y-49412947D01*
X102649423Y-49304268D01*
X102651401Y-49211504D01*
X102653860Y-49133180D01*
X102656871Y-49067822D01*
X102660504Y-49013958D01*
X102664829Y-48970113D01*
X102669916Y-48934813D01*
X102675835Y-48906585D01*
X102682657Y-48883955D01*
X102690451Y-48865449D01*
X102699288Y-48849594D01*
X102709237Y-48834915D01*
X102720369Y-48819940D01*
X102732754Y-48803193D01*
X102744732Y-48786412D01*
X102767885Y-48753231D01*
X102781753Y-48732298D01*
X102782088Y-48731421D01*
X102777246Y-48727462D01*
X102760157Y-48724159D01*
X102728921Y-48721461D01*
X102681635Y-48719317D01*
X102616398Y-48717676D01*
X102531310Y-48716489D01*
X102424467Y-48715703D01*
X102293969Y-48715269D01*
X102137914Y-48715135D01*
X101483722Y-48715135D01*
X101518200Y-48756110D01*
X101538182Y-48784253D01*
X101571443Y-48850608D01*
X101600591Y-48933135D01*
X101622838Y-49024679D01*
X101624256Y-49033369D01*
X101628474Y-49079183D01*
X101631669Y-49149989D01*
X101633849Y-49246275D01*
X101635021Y-49368532D01*
X101635195Y-49517251D01*
X101634378Y-49692922D01*
X101630325Y-50279412D01*
X101211568Y-49749859D01*
X101199574Y-49734690D01*
X101093381Y-49600255D01*
X101002721Y-49485124D01*
X100926151Y-49387339D01*
X100862227Y-49304943D01*
X100809507Y-49235978D01*
X100766549Y-49178486D01*
X100731909Y-49130510D01*
X100704145Y-49090093D01*
X100681814Y-49055276D01*
X100663472Y-49024103D01*
X100647678Y-48994615D01*
X100632988Y-48964855D01*
X100610390Y-48912177D01*
X100595791Y-48856606D01*
X100591908Y-48796666D01*
X100592298Y-48715135D01*
X99202907Y-48715135D01*
X98743522Y-48715135D01*
X98758466Y-48707348D01*
X98866157Y-48622511D01*
X98896094Y-48592602D01*
X98984577Y-48481862D01*
X99047364Y-48361684D01*
X99084789Y-48231291D01*
X99097189Y-48089910D01*
X99097189Y-47973730D01*
X101068088Y-47973730D01*
X101191220Y-47973725D01*
X101455743Y-47973689D01*
X101694702Y-47973663D01*
X101909418Y-47973699D01*
X102101213Y-47973849D01*
X102271407Y-47974166D01*
X102421323Y-47974702D01*
X102552282Y-47975508D01*
X102665605Y-47976638D01*
X102762614Y-47978144D01*
X102844629Y-47980077D01*
X102912974Y-47982491D01*
X102968968Y-47985436D01*
X103013933Y-47988966D01*
X103049191Y-47993133D01*
X103076063Y-47997989D01*
X103095871Y-48003586D01*
X103109935Y-48009976D01*
X103119578Y-48017212D01*
X103126121Y-48025346D01*
X103130885Y-48034431D01*
X103135192Y-48044518D01*
X103140363Y-48055659D01*
X103140455Y-48055841D01*
X103142966Y-48063134D01*
X103145268Y-48075347D01*
X103147372Y-48093605D01*
X103149286Y-48119037D01*
X103151018Y-48152769D01*
X103152578Y-48195928D01*
X103153973Y-48249641D01*
X103155213Y-48315035D01*
X103156307Y-48393238D01*
X103157263Y-48485376D01*
X103158090Y-48592576D01*
X103158797Y-48715966D01*
X103159393Y-48856671D01*
X103159885Y-49015820D01*
X103160284Y-49194540D01*
X103160597Y-49393957D01*
X103160833Y-49615198D01*
X103161002Y-49859390D01*
X103161112Y-50127661D01*
X103161172Y-50421137D01*
X103161189Y-50740946D01*
X103161190Y-50803773D01*
X103161220Y-51120249D01*
X103161267Y-51410615D01*
X103161295Y-51676007D01*
X103161267Y-51917560D01*
X103161150Y-52136410D01*
X103160905Y-52333691D01*
X103160498Y-52510539D01*
X103159893Y-52668090D01*
X103159054Y-52807479D01*
X103158315Y-52888973D01*
X103157945Y-52929840D01*
G37*
%TD*%
M02*
